<?xml version="1.0" standalone="no"?>
<!DOCTYPE svg PUBLIC "-//W3C//DTD SVG 20010904//EN"
 "http://www.w3.org/TR/2001/REC-SVG-20010904/DTD/svg10.dtd">
<svg version="1.0" xmlns="http://www.w3.org/2000/svg"
 width="600.000000pt" height="600.000000pt" viewBox="0 0 600.000000 600.000000"
 preserveAspectRatio="xMidYMid meet">
<metadata>
Created by potrace 1.11, written by Peter Selinger 2001-2013
</metadata>
<g transform="translate(0.000000,600.000000) scale(0.100000,-0.100000)"
fill="#000000" stroke="none">
<path d="M0 5001 c0 -1071 -3 -1018 48 -1005 23 7 28 -4 37 -81 7 -51 6 -57
-8 -52 -11 4 -14 2 -10 -9 8 -20 40 -37 48 -24 3 5 -2 10 -12 10 -14 0 -15 2
-4 9 11 7 13 25 7 80 l-6 72 42 -3 c34 -3 43 -7 42 -21 -2 -17 0 -17 20 -2 34
25 48 29 64 19 17 -11 20 -31 22 -160 1 -113 -5 -138 -36 -153 -31 -14 -47
-14 -39 -1 9 15 -8 12 -33 -6 -28 -20 -28 -23 9 -61 24 -27 27 -33 12 -33 -23
1 -63 34 -63 53 0 8 -13 17 -29 20 -16 3 -45 23 -64 44 -20 20 -39 35 -42 31
-4 -3 3 -16 14 -27 30 -30 25 -48 -11 -42 -5 0 -8 -12 -8 -29 0 -33 11 -38 30
-15 18 22 35 19 72 -16 43 -40 88 -60 110 -48 11 6 31 1 66 -18 48 -26 51 -26
76 -10 33 22 36 62 5 54 -20 -5 -20 -5 -4 13 11 12 14 26 10 40 -6 17 -12 20
-36 15 -30 -7 -41 8 -14 19 15 5 15 25 0 60 -4 10 -4 21 2 25 16 10 22 49 24
149 1 51 5 94 9 97 9 6 112 6 953 5 l747 0 2 -113 c2 -152 2 -150 11 -165 11
-16 27 -6 26 16 0 14 -2 13 -9 -3 -8 -17 -9 -17 -7 7 1 22 4 25 20 17 10 -6
21 -18 24 -27 11 -28 46 -47 87 -48 22 0 42 -6 44 -12 10 -31 22 -6 23 46 1
48 2 53 9 28 5 -16 10 -60 11 -97 1 -38 6 -69 12 -69 5 0 7 6 4 13 -5 15 47
42 62 33 5 -4 12 -2 15 3 3 5 15 7 26 4 14 -4 20 0 20 11 0 24 56 21 70 -4 13
-24 50 -27 50 -4 0 20 19 8 30 -20 7 -17 9 -14 11 19 1 22 4 54 8 70 l7 30 11
-32 c9 -25 19 -33 47 -39 20 -3 38 -9 40 -13 2 -3 25 -5 50 -3 31 3 46 9 49
20 3 12 5 11 6 -4 1 -18 18 -34 36 -34 2 0 6 12 8 28 2 16 5 8 6 -22 1 -39 -2
-47 -14 -42 -8 3 -15 1 -15 -3 0 -5 -7 -11 -15 -15 -8 -3 -14 0 -12 6 4 20
-22 19 -32 -1 -7 -13 -8 -28 -1 -45 12 -33 40 -35 33 -3 -3 17 -2 19 6 7 9
-14 8 -125 -1 -295 -2 -27 2 -53 7 -57 6 -5 5 -15 -3 -29 -7 -11 -11 -24 -8
-27 3 -3 6 0 6 7 0 7 4 10 9 7 4 -3 11 -27 14 -52 4 -43 2 -49 -25 -72 -30
-26 -30 -26 -8 -34 19 -7 20 -11 9 -24 -10 -12 -23 -14 -56 -9 -35 5 -43 3
-43 -9 0 -9 5 -16 10 -16 7 0 7 -6 0 -19 -5 -11 -10 -31 -10 -46 0 -15 -4 -24
-10 -20 -5 3 -10 15 -10 26 0 15 -7 19 -31 19 -48 0 -80 -52 -39 -63 11 -3 20
-14 20 -25 0 -24 28 -50 38 -35 4 5 24 16 45 22 20 7 37 18 37 25 0 7 11 27
25 46 29 39 32 52 10 44 -8 -4 -12 -10 -9 -15 3 -5 -2 -6 -10 -3 -9 3 -16 8
-16 10 0 2 20 22 45 45 40 37 62 71 35 54 -6 -3 -10 -1 -10 4 0 22 20 10 42
-23 13 -19 30 -37 38 -39 9 -2 16 -16 18 -32 7 -84 95 -165 186 -173 53 -4 55
-3 62 23 4 15 2 53 -3 84 -8 43 -8 60 2 75 9 12 11 36 8 72 -4 37 -2 54 6 54
13 0 15 26 1 35 -5 3 -25 -1 -44 -9 -31 -13 -39 -13 -66 0 -33 17 -35 22 -19
77 8 31 7 43 -6 63 -8 13 -22 24 -30 24 -7 0 -17 9 -20 20 -9 28 -25 25 -25
-5 0 -14 -4 -25 -8 -25 -14 0 -90 39 -97 50 -4 6 8 33 25 60 l32 50 30 -37
c33 -42 46 -53 66 -53 9 0 11 7 7 21 -5 14 -2 25 6 30 9 6 10 12 4 17 -5 4
-11 17 -12 30 l-3 23 39 -23 c22 -13 43 -19 47 -15 10 10 -23 34 -70 50 l-39
13 31 13 c46 19 39 31 -19 31 -35 0 -60 -6 -80 -20 l-28 -21 -33 32 c-21 20
-28 33 -20 36 6 3 12 13 12 22 0 23 42 68 74 81 21 8 28 6 37 -11 8 -15 7 -24
-2 -35 -8 -10 -8 -14 0 -14 6 0 11 5 11 10 0 6 12 10 27 10 14 0 23 -3 20 -7
-8 -7 109 -65 140 -69 14 -2 23 4 26 17 3 10 12 19 21 19 19 0 21 -11 5 -27
-8 -8 -4 -16 14 -27 19 -13 26 -29 32 -71 7 -62 18 -74 44 -51 19 18 81 22 81
6 0 -5 -4 -9 -8 -7 -4 1 -25 -4 -45 -12 -27 -11 -37 -21 -37 -37 0 -12 -3 -29
-6 -38 -4 -10 -1 -16 10 -16 10 0 14 6 10 18 -5 16 -4 16 9 -1 18 -22 30 -8
22 26 -4 15 -1 28 9 36 14 12 16 10 16 -9 0 -16 4 -20 15 -16 11 4 15 -1 15
-19 0 -26 -45 -85 -65 -85 -19 0 -25 -24 -25 -95 l0 -63 43 -5 c23 -2 143 -4
266 -4 164 0 226 -3 229 -11 2 -7 8 -10 13 -6 5 3 9 1 9 -5 0 -14 73 -11 82 3
4 6 8 278 8 604 l0 592 -22 0 c-13 0 -41 9 -63 19 -54 24 -100 7 -113 -41 l-9
-33 -7 50 c-12 84 -42 189 -56 193 -10 4 -12 -14 -8 -77 3 -44 1 -81 -4 -81
-5 0 -6 -6 -3 -12 4 -7 -4 -1 -18 13 -30 33 -77 64 -77 52 0 -6 14 -22 32 -37
17 -14 29 -26 25 -26 -4 0 -3 -9 3 -20 18 -34 -22 -24 -42 10 -17 30 -18 31
-48 15 -16 -8 -30 -21 -31 -28 -1 -6 -2 -21 -3 -31 -1 -25 -24 -33 -32 -11 -8
20 13 95 26 95 15 0 50 33 44 41 -6 11 -50 -6 -75 -30 -11 -10 -26 -38 -33
-60 l-12 -42 -14 25 c-15 29 -30 34 -30 11 0 -8 -9 -19 -19 -24 -15 -8 -25 -6
-47 11 -19 15 -29 18 -32 10 -2 -8 -18 -1 -45 20 -23 18 -44 35 -47 39 -3 3
-20 14 -39 24 -40 20 -51 11 -51 -47 0 -42 -6 -46 -36 -23 -25 19 -34 19 -35
-2 0 -11 -4 -7 -11 10 -13 36 -32 30 -36 -12 -3 -24 -7 -31 -19 -27 -8 3 -19
6 -24 6 -6 0 -8 4 -4 9 10 17 -15 23 -31 7 -22 -23 -27 -21 -54 24 -24 38 -27
39 -76 40 -38 0 -55 -5 -69 -20 -10 -11 -24 -20 -32 -20 -16 0 -16 -5 -3 -31
12 -21 1 -26 -18 -7 -10 10 -12 7 -10 -12 3 -21 -1 -24 -29 -25 -23 0 -33 5
-33 15 0 8 -3 24 -5 35 -4 13 8 38 35 73 l40 52 0 95 c0 52 4 97 10 100 6 4
10 -26 10 -83 0 -71 3 -91 15 -96 13 -5 15 24 17 219 1 124 2 235 2 248 1 21
-2 22 -109 24 -275 6 -518 22 -527 35 -5 7 -8 63 -7 123 0 61 0 311 0 558 l-1
447 -1040 0 -1040 0 0 -999z m759 725 c13 -15 11 -15 -54 -6 -5 1 -1 5 10 10
28 12 31 12 44 -4z m-75 -11 c11 -8 17 -17 14 -21 -8 -8 -48 14 -48 26 0 14
12 12 34 -5z m-26 -17 c21 -21 13 -32 -10 -12 -18 16 -21 17 -15 2 4 -12 2
-15 -9 -11 -11 4 -12 9 -3 19 14 17 22 17 37 2z m922 -28 c0 -5 -7 -10 -15
-10 -8 0 -15 5 -15 10 0 6 7 10 15 10 8 0 15 -4 15 -10z m53 -33 c-2 -4 -14
-5 -26 -1 -28 8 -30 11 -23 22 4 7 15 6 30 -1 13 -7 22 -15 19 -20z m-1038 3
c-3 -6 -21 -17 -38 -26 -36 -19 -31 -9 10 17 34 21 36 22 28 9z m946 -63 c-8
-8 -11 -3 -11 19 1 25 2 27 11 11 8 -14 8 -22 0 -30z m-1031 3 c0 -5 -5 -10
-11 -10 -5 0 -7 5 -4 10 3 6 8 10 11 10 2 0 4 -4 4 -10z m604 -400 c7 0 23
-11 36 -25 l24 -26 -47 25 c-35 19 -47 22 -47 12 0 -8 6 -17 13 -19 6 -3 0 -6
-15 -6 -15 -1 -32 -9 -37 -18 -6 -10 -11 -13 -11 -6 0 6 7 19 16 27 8 9 12 16
9 16 -4 0 3 9 16 19 13 11 26 15 27 10 2 -5 9 -9 16 -9z m-114 -4 c0 -11 -19
-15 -25 -6 -3 5 1 10 9 10 9 0 16 -2 16 -4z m195 -17 c4 -6 14 -8 22 -5 11 5
13 2 9 -10 -3 -8 -6 -20 -6 -25 0 -5 -4 -9 -10 -9 -5 0 -7 7 -4 15 4 9 0 15
-9 15 -8 0 -17 7 -21 15 -6 17 9 21 19 4z m-220 -36 c-3 -15 -15 -34 -26 -44
-11 -9 -17 -23 -13 -32 6 -17 -33 -63 -44 -52 -4 4 2 13 12 21 16 11 18 18 8
38 -9 20 -7 26 19 45 16 12 29 28 29 36 0 8 5 15 11 15 7 0 9 -10 4 -27z m186
-66 c34 -23 34 -24 33 -95 -1 -40 2 -72 7 -72 14 0 11 -24 -7 -46 -14 -18 -15
-18 -4 5 18 35 -6 17 -25 -20 -21 -40 -31 -36 -27 11 2 22 8 40 13 40 5 0 9 5
9 12 0 16 -49 58 -67 58 -15 0 -16 9 -4 29 7 11 14 9 33 -13 26 -30 53 -28 61
5 5 19 -24 47 -55 53 -98 20 -99 20 -70 42 26 20 65 17 103 -9z m-421 -29 c33
-45 37 -58 17 -58 -8 0 -19 12 -26 28 -8 15 -17 35 -22 44 -22 44 -5 36 31
-14z m497 20 c-3 -8 -6 -5 -6 6 -1 11 2 17 5 13 3 -3 4 -12 1 -19z m-276 -35
c-10 -17 -10 -16 -11 3 0 23 13 41 18 25 2 -6 -1 -18 -7 -28z m509 11 c0 -3
-20 -28 -44 -55 -30 -33 -55 -76 -75 -130 -17 -45 -40 -94 -51 -109 -11 -16
-20 -33 -20 -38 0 -6 -5 -14 -11 -17 -7 -5 -9 8 -7 40 4 38 11 53 35 74 19 16
37 46 47 77 17 51 39 86 86 136 24 25 40 34 40 22z m-468 -26 c2 -17 11 -24
31 -26 23 -3 26 -6 16 -18 -9 -11 -15 -12 -25 -3 -23 19 -45 -8 -45 -55 0 -91
-4 -146 -11 -146 -3 0 -9 27 -13 60 -4 33 -11 60 -16 60 -13 0 -38 61 -32 77
3 7 15 13 28 13 16 0 26 9 35 30 15 36 27 39 32 8z m-244 -54 c14 -9 21 -22
18 -31 -3 -8 -2 -12 3 -9 9 6 23 -45 14 -54 -2 -3 -11 4 -19 15 -10 14 -24 19
-44 17 -37 -4 -41 19 -7 43 19 13 20 17 7 25 -8 5 -10 10 -5 10 6 0 21 -7 33
-16z m380 -53 c3 -8 -1 -12 -9 -9 -7 2 -15 10 -17 17 -3 8 1 12 9 9 7 -2 15
-10 17 -17z m-213 -41 c-3 -5 -14 -10 -23 -9 -14 0 -13 2 3 9 27 11 27 11 20
0z m-1 -138 c11 -14 22 -42 23 -62 l2 -35 -36 39 -36 39 6 -34 c6 -31 4 -30
-18 15 -13 26 -31 53 -39 60 -18 13 -36 58 -36 88 0 16 10 11 57 -32 31 -28
66 -63 77 -78z m1226 94 c0 -3 -4 -8 -10 -11 -5 -3 -10 -1 -10 4 0 6 5 11 10
11 6 0 10 -2 10 -4z m535 -234 c-10 -10 -11 4 -6 98 l6 95 3 -94 c1 -51 0 -96
-3 -99z m-1430 168 c3 -5 1 -10 -4 -10 -6 0 -11 5 -11 10 0 6 2 10 4 10 3 0 8
-4 11 -10z m886 -93 c-13 -13 -26 -3 -16 12 3 6 11 8 17 5 6 -4 6 -10 -1 -17z
m-986 3 c18 -8 17 -9 -7 -9 -16 -1 -28 4 -28 9 0 12 8 12 35 0z m186 -130 c-6
-22 -16 -40 -21 -40 -15 0 -12 88 3 93 23 9 31 -12 18 -53z m765 38 c5 -7 9
-20 8 -28 -1 -8 -2 -21 -3 -28 0 -7 -6 -10 -11 -7 -6 4 -8 10 -5 15 3 5 1 11
-5 15 -12 8 -13 45 -1 45 5 0 13 -6 17 -12z m284 -7 c-14 -27 -13 -61 3 -61 9
0 9 -2 0 -8 -9 -6 -10 -17 -3 -40 5 -21 5 -43 -2 -62 -7 -23 -7 -34 2 -45 7
-8 9 -15 4 -15 -5 0 -2 -4 6 -10 11 -7 9 -11 -13 -19 -31 -12 -30 -11 -17 -47
6 -14 8 -42 4 -60 l-6 -34 -109 0 c-90 0 -109 3 -109 15 0 10 -10 15 -29 15
-48 0 -45 18 4 25 42 7 51 16 46 47 0 4 10 10 23 14 16 4 24 13 24 27 0 35 82
240 104 260 11 9 33 17 49 17 26 0 28 -2 19 -19z m-965 -8 c68 -15 95 -27 95
-44 0 -17 -3 -17 -37 3 -31 19 -36 20 -30 5 9 -23 -4 -21 -43 6 -38 25 -55 55
-24 42 11 -4 28 -9 39 -12z m695 -93 c8 -14 18 -19 35 -16 31 6 33 -10 3 -18
-50 -13 -66 -7 -70 24 -5 35 15 41 32 10z m-635 -10 c3 -6 -1 -7 -9 -4 -18 7
-21 14 -7 14 6 0 13 -4 16 -10z m1222 -47 c-3 -10 -5 -2 -5 17 0 19 2 27 5 18
2 -10 2 -26 0 -35z m-557 -38 c0 -8 -6 -15 -12 -16 -10 0 -10 -2 0 -6 7 -3 12
-25 12 -59 0 -53 0 -54 -30 -54 l-30 0 1 75 1 75 29 0 c19 0 29 -5 29 -15z
m-1540 -37 c0 -7 -9 -24 -20 -38 l-20 -25 10 29 c17 46 30 61 30 34z m2608
-83 c31 -25 62 -49 67 -53 6 -4 19 -6 30 -4 16 2 17 1 5 -7 -11 -8 -3 -11 35
-12 41 -2 44 -3 15 -6 -43 -6 -106 14 -143 44 -33 27 -67 30 -67 7 0 -10 6
-14 14 -11 7 3 36 -6 62 -19 l49 -25 -60 3 c-57 3 -61 5 -76 36 -16 35 -14 92
3 92 5 0 35 -20 66 -45z m-2638 -15 c0 -5 -5 -10 -11 -10 -5 0 -7 5 -4 10 3 6
8 10 11 10 2 0 4 -4 4 -10z m2999 -46 c-5 -6 -6 -14 -2 -17 3 -4 1 -7 -5 -7
-18 0 -27 51 -11 61 17 10 31 -20 18 -37z m-3005 -51 c-35 -70 -33 -67 -38
-62 -4 4 32 93 48 117 4 7 10 11 13 8 3 -3 -8 -31 -23 -63z m2455 31 c2 -2
-19 -4 -48 -4 -32 0 -50 4 -46 10 5 9 83 4 94 -6z m-919 -14 c0 -5 -4 -10 -10
-10 -5 0 -10 5 -10 10 0 6 5 10 10 10 6 0 10 -4 10 -10z m177 -122 c-2 -24 -4
-5 -4 42 0 47 2 66 4 43 2 -24 2 -62 0 -85z m-1715 50 c-7 -7 -12 -8 -12 -2 0
14 12 26 19 19 2 -3 -1 -11 -7 -17z m1553 -6 c-3 -3 -11 0 -18 7 -9 10 -8 11
6 5 10 -3 15 -9 12 -12z m1792 -79 c-3 -10 -5 -4 -5 12 0 17 2 24 5 18 2 -7 2
-21 0 -30z m-1340 -29 c-3 -3 -12 -4 -19 -1 -8 3 -5 6 6 6 11 1 17 -2 13 -5z
m-2247 -131 c0 -12 -3 -24 -8 -27 -4 -2 -7 13 -7 34 0 22 3 33 7 27 4 -7 8
-22 8 -34z m2277 -55 c-3 -7 -5 -2 -5 12 0 14 2 19 5 13 2 -7 2 -19 0 -25z
m-2337 -148 c0 -5 -4 -10 -10 -10 -5 0 -10 5 -10 10 0 6 5 10 10 10 6 0 10 -4
10 -10z m2610 -240 c0 -5 -4 -10 -10 -10 -5 0 -10 5 -10 10 0 6 5 10 10 10 6
0 10 -4 10 -10z m116 -215 c3 -29 0 -35 -17 -35 -11 0 -31 8 -45 17 l-26 16
38 23 c21 13 40 21 43 18 3 -2 6 -20 7 -39z m-60 -102 c-11 -11 -19 6 -11 24
8 17 8 17 12 0 3 -10 2 -21 -1 -24z"/>
<path d="M927 4917 c-3 -9 -2 -19 4 -23 15 -9 18 -2 9 20 -6 17 -7 18 -13 3z"/>
<path d="M2200 4240 c12 -8 12 -10 1 -10 -8 0 -12 -2 -9 -5 3 -3 13 -2 22 1
14 5 15 9 4 15 -7 5 -17 9 -23 9 -5 0 -3 -5 5 -10z"/>
<path d="M4059 5713 c-1 -10 -1 -37 0 -60 2 -31 -3 -47 -19 -63 -15 -15 -19
-28 -14 -43 9 -32 25 -49 40 -43 7 3 16 1 19 -3 7 -12 55 -20 55 -10 0 4 -10
11 -22 15 l-23 7 23 8 c17 7 22 16 22 44 0 23 -5 35 -14 35 -9 0 -19 22 -28
62 -12 59 -37 90 -39 51z"/>
<path d="M5400 5599 c0 -6 -9 -102 -20 -212 -31 -329 -32 -341 -10 -357 17
-13 18 -36 1 -26 -4 3 -8 -1 -8 -9 0 -8 7 -17 15 -20 11 -4 12 -8 3 -19 -9
-11 -8 -15 5 -20 10 -4 15 -16 12 -35 -1 -16 3 -35 10 -44 8 -9 9 -18 3 -21
-5 -4 -12 3 -16 14 -3 11 -11 20 -16 20 -5 0 -12 1 -16 3 -5 1 -8 -10 -8 -25
-1 -15 2 -25 6 -22 8 5 19 -50 25 -123 2 -30 9 -84 15 -121 26 -161 2 -270
-71 -319 -18 -13 -48 -23 -67 -23 -33 0 -33 0 -19 28 25 49 40 146 26 172 -10
19 -10 25 2 34 20 15 39 200 31 312 -8 116 -7 127 12 140 20 15 19 21 -5 27
-11 3 -20 13 -20 24 0 10 -9 34 -19 54 -11 20 -22 60 -26 90 -4 29 -13 66 -21
81 -8 15 -14 33 -14 40 -1 14 -34 58 -44 58 -3 0 -6 -6 -6 -14 0 -11 -46 -36
-66 -36 -2 0 -2 20 1 44 4 43 4 44 -20 32 -14 -6 -23 -17 -20 -26 2 -8 6 -32
9 -52 5 -34 2 -40 -36 -72 -46 -40 -56 -43 -65 -20 -3 9 6 28 26 48 39 40 40
53 3 26 -16 -12 -38 -22 -49 -23 -12 0 -19 -6 -15 -11 3 -6 7 -37 8 -68 2 -44
-1 -58 -12 -58 -7 0 -23 -18 -34 -40 -22 -44 -56 -54 -81 -24 -11 14 -14 12
-28 -13 -55 -97 -77 -119 -112 -111 -25 6 -21 -33 5 -53 15 -11 24 -25 20 -30
-3 -5 -9 -7 -14 -4 -4 3 -10 -1 -13 -9 -7 -17 2 -56 13 -56 19 0 1 -35 -18
-38 -12 -2 -22 -10 -22 -18 0 -8 -8 -14 -17 -15 -10 0 0 -7 22 -16 33 -12 92
-20 164 -23 16 0 7 -47 -15 -71 -16 -18 -17 -104 -1 -126 5 -7 1 -16 -10 -25
-20 -14 -22 -36 -22 -223 0 -89 6 -135 31 -239 31 -125 32 -129 64 -142 19 -8
60 -14 92 -14 56 0 59 -1 74 -34 28 -59 101 -57 144 4 l21 30 25 -63 26 -62
196 -3 c145 -2 195 -5 190 -14 -5 -8 -2 -9 10 -5 10 4 30 9 44 12 l27 5 -25
-12 c-14 -7 -26 -19 -28 -26 -1 -8 -10 -25 -19 -38 -12 -19 -18 -22 -25 -12
-5 8 -6 2 -2 -16 5 -20 4 -27 -4 -22 -8 5 -10 1 -6 -9 4 -9 -6 -33 -21 -57
-15 -22 -29 -58 -31 -79 -2 -20 -5 -43 -6 -50 -2 -7 6 -15 17 -17 11 -2 27
-13 36 -23 21 -25 22 -24 100 139 60 128 64 134 90 130 25 -4 27 -2 17 16 -9
17 -8 19 3 9 7 -7 37 -13 66 -13 29 0 53 -4 53 -10 0 -5 -19 -10 -42 -10 l-41
0 23 -20 c13 -11 28 -20 34 -21 6 0 1 -4 -11 -9 -34 -14 -29 -40 7 -40 17 0
30 -5 30 -11 0 -6 -16 -9 -37 -7 -35 3 -40 0 -61 -37 -22 -37 -22 -40 -6 -52
26 -19 36 -16 29 7 -5 15 -2 20 14 20 11 0 31 -5 44 -11 14 -6 36 -7 55 -2 51
13 42 27 -15 24 -42 -2 -53 1 -53 12 0 19 48 31 84 21 16 -4 26 -2 26 5 0 6
-10 11 -22 12 l-23 0 23 11 c18 9 22 19 22 61 0 44 -2 49 -20 44 -11 -3 -18
-1 -14 4 3 5 12 9 20 9 11 0 14 9 12 37 -3 38 -3 38 -65 51 -83 18 -81 34 2
26 l65 -5 0 31 c0 17 -5 40 -10 51 -7 13 -7 19 0 19 5 0 10 5 10 11 0 6 -10 9
-24 7 -22 -4 -22 -3 -10 21 8 14 14 32 14 39 0 6 5 12 10 12 6 0 10 41 10 103
-1 89 -2 100 -14 84 -14 -18 -16 -18 -40 -2 -28 19 -32 35 -16 65 9 16 15 18
36 10 14 -6 27 -10 30 -10 2 0 4 90 4 200 0 153 -3 200 -12 200 -9 0 -10 3 -2
8 7 5 12 86 13 247 2 235 2 239 -17 222 -24 -22 -32 -22 -32 3 0 11 5 20 10
20 6 0 17 5 24 12 16 15 -1 55 -27 64 -11 3 -16 12 -13 20 3 8 -1 17 -9 20 -8
4 -15 13 -15 22 0 8 -3 12 -7 9 -3 -4 -6 -23 -6 -42 0 -19 3 -38 6 -42 17 -16
4 -21 -25 -8 -30 12 -74 58 -52 54 22 -4 36 2 32 14 -3 6 8 22 23 35 16 13 29
18 29 12 0 -6 5 -8 11 -4 8 4 8 9 0 17 -7 7 -7 14 0 24 8 9 8 13 1 13 -6 0
-14 -4 -17 -10 -3 -5 -17 -10 -31 -10 -17 0 -24 6 -24 18 0 25 11 34 26 21 8
-6 14 -7 18 0 4 6 -6 17 -21 25 -27 15 -27 15 -5 16 14 0 21 4 16 11 -3 6 0
15 7 20 7 4 10 11 6 16 -5 4 -12 1 -17 -6 -6 -11 -14 -8 -33 15 -23 26 -24 30
-9 38 9 5 20 13 23 18 3 6 10 10 15 10 12 1 5 41 -9 50 -6 4 -15 2 -19 -5 -8
-14 -13 -9 -22 21 -4 12 -4 22 1 22 4 0 14 9 21 21 11 17 7 16 -24 -7 -21 -16
-35 -23 -30 -16 10 17 -19 16 -33 -2 -8 -10 -9 -16 -1 -21 12 -7 14 -35 2 -35
-5 0 -19 9 -32 20 l-23 20 27 24 c28 27 29 29 20 64 -5 18 -9 20 -20 11 -8 -6
-14 -20 -14 -31 0 -11 -9 -22 -20 -25 -11 -3 -20 -10 -20 -15 0 -5 -5 -6 -11
-2 -8 4 -7 9 2 15 10 6 11 11 3 19 -8 8 -14 7 -24 -5 -7 -8 -19 -15 -27 -15
-8 0 -11 -4 -8 -10 3 -5 1 -10 -4 -10 -6 0 -11 6 -11 13 0 8 -11 24 -25 37
-14 13 -25 18 -25 12 0 -6 9 -16 20 -22 25 -13 26 -32 3 -28 -13 2 -18 -3 -17
-19 0 -13 -7 -25 -17 -28 -19 -6 -31 -62 -15 -69 16 -7 -14 -25 -31 -19 -17 7
-16 -1 3 -38 8 -17 14 -32 12 -33 -2 -1 -15 -7 -30 -14 -16 -6 -28 -17 -28
-24 0 -7 -12 -22 -26 -34 l-25 -23 43 -9 c24 -6 34 -10 23 -11 -11 -1 -30 -14
-43 -30 -16 -21 -29 -27 -43 -24 -18 5 -20 11 -15 47 3 23 8 73 12 111 4 39 8
81 10 95 9 82 16 210 10 210 -3 0 -6 -5 -6 -11z m280 -122 c0 -7 -9 -18 -19
-24 -16 -10 -20 -9 -25 3 -10 27 -7 34 19 34 14 0 25 -6 25 -13z m40 -61 c-6
-8 -18 -12 -27 -9 -12 5 -12 7 -1 14 7 5 19 9 27 9 11 0 11 -3 1 -14z m95 -6
c3 -5 1 -10 -4 -10 -6 0 -11 5 -11 10 0 6 2 10 4 10 3 0 8 -4 11 -10z m-161
-19 c3 -5 -1 -11 -9 -15 -9 -3 -15 0 -15 9 0 16 16 20 24 6z m-539 -161 c-3
-5 -11 -10 -16 -10 -6 0 -7 5 -4 10 3 6 11 10 16 10 6 0 7 -4 4 -10z m725 -55
c-7 -8 -20 -15 -28 -15 -13 0 -12 3 4 15 25 19 40 19 24 0z m40 11 c0 -3 -4
-8 -10 -11 -5 -3 -10 -1 -10 4 0 6 5 11 10 11 6 0 10 -2 10 -4z m-287 -18 c2
-7 2 -21 -1 -31 -4 -17 -5 -17 -17 0 -13 17 -10 43 5 43 5 0 10 -6 13 -12z
m204 -16 c9 -15 7 -18 -12 -17 -23 0 -49 15 -27 15 6 0 9 7 6 15 -8 21 18 10
33 -13z m-606 -22 c17 0 9 -18 -10 -23 -31 -8 -52 -52 -67 -139 -8 -46 -17
-90 -21 -98 -3 -8 -5 -21 -4 -27 3 -17 -9 -16 -33 2 -29 22 -36 19 -36 -16 0
-26 3 -29 20 -24 24 7 27 -10 4 -19 -9 -3 -28 -6 -44 -6 -43 0 -60 10 -59 34
0 11 3 15 6 8 7 -17 23 -5 23 19 0 11 -4 17 -10 14 -12 -8 -13 5 -1 24 6 9 22
12 47 10 l39 -4 0 60 c1 80 35 157 78 179 18 9 38 13 45 11 8 -3 18 -5 23 -5z
m236 -35 c0 -8 -4 -12 -9 -9 -4 3 -8 1 -8 -5 0 -6 -6 -8 -14 -5 -8 3 -16 -2
-19 -13 -3 -12 -5 -9 -6 9 -1 22 4 27 27 31 15 2 27 5 28 6 0 0 1 -6 1 -14z
m50 9 c-3 -3 -12 -4 -19 -1 -8 3 -5 6 6 6 11 1 17 -2 13 -5z m259 -15 c17 -19
18 -21 1 -30 -9 -6 -17 -17 -17 -24 0 -20 -39 -19 -62 2 -24 21 -23 39 4 57
30 22 51 20 74 -5z m-292 -30 c-5 -9 1 -10 20 -5 19 5 26 3 26 -8 0 -8 -14
-16 -32 -19 -39 -6 -53 0 -39 17 6 7 8 16 4 19 -3 4 1 7 11 7 10 0 14 -5 10
-11z m176 -13 c0 -3 -4 -8 -10 -11 -5 -3 -10 -1 -10 4 0 6 5 11 10 11 6 0 10
-2 10 -4z m263 -2 c3 -4 1 -16 -5 -27 -9 -18 -11 -19 -20 -4 -13 25 6 49 25
31z m65 -91 c9 -16 9 -22 -2 -26 -9 -4 -13 4 -14 25 -1 33 0 33 16 1z m-364 8
c7 -10 -22 -37 -30 -28 -9 8 3 37 15 37 5 0 12 -4 15 -9z m-139 -141 c-3 -5
-13 -10 -21 -10 -8 0 -14 -5 -14 -11 0 -7 10 -9 26 -5 25 7 25 6 10 -9 -13
-14 -19 -15 -31 -5 -22 18 -18 38 8 43 12 2 23 5 25 6 2 0 0 -3 -3 -9z m304
-4 c10 -11 8 -16 -9 -21 -26 -8 -35 -1 -27 20 8 19 21 19 36 1z m-149 -36 c0
-5 -4 -10 -10 -10 -5 0 -10 5 -10 10 0 6 5 10 10 10 6 0 10 -4 10 -10z m332
-27 c6 -29 -3 -53 -21 -53 -9 0 -17 8 -17 18 -1 9 -4 25 -9 35 -6 14 -2 17 18
17 16 0 27 -6 29 -17z m-504 -59 l-4 -39 -13 30 c-8 19 -9 31 -2 33 5 2 7 11
4 20 -5 13 -3 14 6 6 7 -7 11 -28 9 -50z m277 -15 c10 -15 -1 -23 -20 -15 -9
3 -13 10 -10 16 8 13 22 13 30 -1z m-622 -42 c-3 -16 -12 -31 -20 -34 -25 -10
-26 5 -3 37 26 36 30 36 23 -3z m749 -4 c25 -23 23 -36 -12 -61 -23 -17 -30
-19 -30 -8 0 8 -8 22 -17 32 -16 16 -16 18 6 35 28 23 30 23 53 2z m114 -47
c23 -24 18 -56 -10 -56 -27 0 -42 34 -23 56 15 17 16 17 33 0z m-373 -103 c-7
-2 -19 -2 -25 0 -7 3 -2 5 12 5 14 0 19 -2 13 -5z m-84 -9 c27 -6 32 -11 29
-33 -2 -16 -10 -27 -21 -29 -23 -5 -67 35 -60 54 6 16 9 16 52 8z m291 -4 c13
-9 13 -11 0 -19 -10 -7 -17 -6 -22 2 -17 26 -5 35 22 17z m64 -35 c-4 -8 -8
-15 -10 -15 -2 0 -4 7 -4 15 0 8 4 15 10 15 5 0 7 -7 4 -15z m53 9 c-3 -3 -12
-4 -19 -1 -8 3 -5 6 6 6 11 1 17 -2 13 -5z m-17 -34 c0 -11 -7 -20 -15 -20 -8
0 -15 -5 -15 -11 0 -5 5 -7 10 -4 6 4 10 -5 10 -20 0 -32 -15 -25 -24 11 -5
18 -2 32 10 45 21 24 24 24 24 -1z m-50 -58 c21 -17 21 -18 3 -50 -10 -17 -21
-32 -25 -32 -12 0 -9 10 7 26 20 20 19 35 -1 27 -10 -4 -17 1 -21 15 -3 12
-12 23 -22 25 -9 3 -5 5 10 6 15 0 37 -7 49 -17z m-755 -136 c15 -3 19 -10 18
-32 -3 -34 -22 -84 -33 -84 -14 0 -50 85 -50 116 0 40 9 48 29 23 9 -11 25
-21 36 -23z m492 -22 c7 -18 -14 -44 -37 -44 -22 0 -36 46 -19 66 13 16 46 3
56 -22z m266 -64 c4 -15 0 -20 -15 -20 -18 0 -19 2 -7 17 10 11 10 14 2 9 -7
-4 -13 -2 -13 3 0 19 28 12 33 -9z m-123 -35 c0 -22 -27 -48 -44 -42 -19 8
-22 63 -3 70 15 5 47 -14 47 -28z m-225 -4 c-3 -6 -11 -11 -17 -11 -6 0 -6 6
2 15 14 17 26 13 15 -4z m434 -122 c-15 -9 -32 -2 -24 11 3 5 13 6 21 3 12 -4
13 -8 3 -14z m-99 -9 c0 -5 7 -10 15 -10 13 0 14 -4 5 -21 l-11 -20 -20 22
c-23 27 -24 39 -4 39 8 0 15 -4 15 -10z m-325 -10 c11 -18 -6 -50 -26 -50 -25
0 -35 24 -17 44 15 18 34 20 43 6z m420 -17 c0 -6 4 -15 9 -20 5 -5 6 -3 2 5
-5 8 0 12 12 12 11 0 22 -9 25 -20 3 -11 1 -20 -3 -20 -4 0 -6 -9 -3 -20 3
-11 0 -27 -7 -35 -19 -23 -31 -18 -18 9 8 20 8 28 -5 40 -13 13 -17 13 -26 2
-8 -10 -9 -16 -1 -19 6 -3 5 -4 -2 -2 -7 1 -12 8 -10 14 1 6 -2 11 -6 11 -5 0
-9 7 -9 15 0 8 4 15 9 15 4 0 8 7 8 16 0 9 6 14 13 12 6 -3 12 -10 12 -15z
m-428 -66 c25 -2 28 -7 31 -40 l3 -37 -67 0 c-64 0 -66 1 -60 23 3 12 6 32 6
44 0 18 4 21 30 17 16 -3 42 -6 57 -7z m-247 -10 c0 -17 -29 -57 -41 -57 -10
0 -12 30 -3 54 7 19 44 22 44 3z m707 -83 c-3 -3 -12 -4 -19 -1 -8 3 -5 6 6 6
11 1 17 -2 13 -5z m-229 -93 c11 -7 11 -9 -1 -14 -16 -6 -27 0 -27 15 0 10 11
10 28 -1z"/>
<path d="M5245 5559 c-10 -15 3 -25 16 -12 7 7 7 13 1 17 -6 3 -14 1 -17 -5z"/>
<path d="M3003 5546 c7 -8 38 -18 68 -24 47 -9 42 -9 -46 -5 -55 2 -106 7
-114 9 -8 3 -11 -1 -8 -11 4 -8 2 -17 -3 -20 -6 -4 -10 -2 -10 2 0 14 -93 9
-98 -4 -2 -7 -10 -13 -18 -13 -8 0 -14 -7 -14 -15 0 -9 -8 -19 -17 -22 -29
-11 -153 -123 -137 -123 15 0 13 -52 -2 -67 -16 -16 -20 -158 -5 -167 4 -3 11
-20 15 -37 8 -41 72 -146 97 -160 21 -11 39 1 51 32 8 20 55 31 55 13 0 -7 -3
-11 -7 -9 -4 2 -7 -12 -8 -31 -1 -24 2 -34 11 -31 6 2 11 12 11 21 -2 20 10
21 30 1 9 -9 17 -11 21 -5 3 5 4 10 2 10 -3 0 1 16 8 36 10 30 10 41 -2 66
-17 33 -17 33 15 43 19 5 25 2 29 -14 5 -20 43 -31 43 -12 0 5 17 11 39 15 33
5 101 45 78 46 -5 0 -15 -7 -23 -15 -33 -33 -33 -13 -1 28 38 47 38 67 0 67
l-26 0 23 20 c13 11 35 20 49 20 14 0 35 7 45 15 32 24 58 17 104 -27 l45 -43
-6 38 c-3 22 1 56 10 83 13 39 19 45 38 42 21 -4 22 -2 14 25 -24 85 -135 195
-202 202 -18 1 -49 10 -71 19 -21 9 -52 16 -68 16 -25 0 -27 -2 -15 -14z m62
-58 c15 -6 11 -7 -14 -3 -18 3 -48 5 -65 6 -26 0 -28 2 -11 9 20 8 54 4 90
-12z m92 16 c-3 -3 -12 -4 -19 -1 -8 3 -5 6 6 6 11 1 17 -2 13 -5z m-307 -44
c-8 -5 -22 -9 -30 -9 -10 0 -8 3 5 9 27 12 43 12 25 0z m-134 -65 c-26 -19
-42 -19 -26 0 7 8 20 15 29 15 13 -1 13 -3 -3 -15z m304 -335 c0 -5 -2 -10 -4
-10 -3 0 -8 5 -11 10 -3 6 -1 10 4 10 6 0 11 -4 11 -10z"/>
<path d="M4880 5553 c-26 -10 -51 -37 -66 -72 -18 -43 -17 -51 4 -78 12 -16
21 -20 31 -14 12 8 13 12 1 26 -11 13 -10 18 6 30 10 7 36 17 57 20 32 6 43 3
64 -16 14 -13 31 -36 39 -51 l14 -28 22 22 c21 21 21 21 36 2 13 -17 14 -14 8
36 -6 44 -14 62 -41 89 -31 31 -40 35 -97 37 -35 1 -70 0 -78 -3z"/>
<path d="M5860 5500 c0 -5 5 -10 10 -10 6 0 10 5 10 10 0 6 -4 10 -10 10 -5 0
-10 -4 -10 -10z"/>
<path d="M4905 5430 c-3 -6 1 -7 9 -4 18 7 21 14 7 14 -6 0 -13 -4 -16 -10z"/>
<path d="M4220 5416 c-6 -8 -20 -16 -31 -18 -18 -3 -16 -7 15 -38 40 -40 44
-55 17 -70 -23 -12 -61 -13 -61 -2 0 5 -16 16 -35 25 -25 12 -35 13 -35 4 0
-8 -4 -7 -11 3 -8 12 -9 10 -7 -10 4 -31 42 -51 106 -55 26 -2 62 -10 79 -20
19 -9 61 -17 101 -19 47 -1 79 -9 107 -24 32 -17 99 -39 170 -55 6 -2 15 -6
21 -9 6 -4 24 -4 40 1 26 7 29 12 28 44 -1 39 -37 81 -61 72 -7 -2 -13 2 -13
11 0 14 -12 22 -42 28 -22 5 -50 18 -100 48 -54 31 -63 19 -18 -23 26 -26 27
-29 10 -29 -11 0 -20 -4 -20 -9 0 -5 -8 -7 -19 -4 -10 3 -22 0 -25 -6 -4 -6
-14 -3 -26 9 -11 11 -27 20 -35 20 -8 0 -15 5 -15 10 0 6 7 13 15 16 8 4 15
13 15 20 0 8 10 18 22 23 20 7 19 9 -12 20 -31 10 -36 9 -50 -8 -11 -15 -19
-18 -30 -11 -8 5 -23 7 -32 4 -13 -4 -16 -1 -12 10 4 11 0 16 -12 17 -15 0
-13 2 6 10 20 8 22 12 10 19 -22 14 -46 12 -60 -4z m220 -186 c0 -5 -4 -10
-10 -10 -5 0 -10 5 -10 10 0 6 5 10 10 10 6 0 10 -4 10 -10z m70 -30 c18 -12
2 -12 -25 0 -13 6 -15 9 -5 9 8 0 22 -4 30 -9z"/>
<path d="M5478 5413 c6 -2 18 -2 25 0 6 3 1 5 -13 5 -14 0 -19 -2 -12 -5z"/>
<path d="M4921 5401 c-9 -6 -10 -11 -2 -15 13 -8 31 1 31 15 0 11 -11 11 -29
0z"/>
<path d="M4853 5383 c-7 -2 -13 -12 -13 -20 0 -10 6 -13 16 -9 9 3 18 6 20 6
2 0 4 7 4 15 0 15 -6 17 -27 8z"/>
<path d="M5170 5334 c0 -8 5 -12 10 -9 6 4 8 11 5 16 -9 14 -15 11 -15 -7z"/>
<path d="M4883 5323 c-15 -6 -17 -49 -3 -58 6 -4 8 -11 5 -16 -3 -5 1 -6 10
-2 11 4 13 8 6 13 -15 9 -8 49 10 61 12 7 12 9 -1 8 -8 0 -21 -3 -27 -6z"/>
<path d="M4940 5300 c0 -5 5 -10 10 -10 6 0 10 5 10 10 0 6 -4 10 -10 10 -5 0
-10 -4 -10 -10z"/>
<path d="M3330 5185 c0 -8 9 -19 20 -25 16 -9 22 -8 26 4 8 22 -6 42 -17 25
-6 -10 -9 -11 -9 -1 0 6 -4 12 -10 12 -5 0 -10 -7 -10 -15z"/>
<path d="M3410 5097 c0 -13 9 -32 20 -42 17 -16 20 -16 20 -2 0 25 -19 67 -30
67 -5 0 -10 -11 -10 -23z"/>
<path d="M3533 4973 c-20 -7 -16 -19 12 -37 19 -13 25 -13 25 -3 0 20 -23 45
-37 40z"/>
<path d="M3182 4873 c-6 -3 -10 -8 -7 -13 2 -4 -36 -42 -85 -84 -50 -42 -90
-83 -90 -91 0 -25 17 -17 38 18 20 35 155 140 166 130 3 -4 6 3 6 15 0 23 -9
31 -28 25z"/>
<path d="M3011 4861 c-8 -5 -11 -17 -6 -30 6 -20 25 -30 25 -13 0 4 10 12 22
17 12 6 23 15 25 20 4 12 -48 17 -66 6z"/>
<path d="M2973 4819 c-28 -10 -29 -25 -3 -39 17 -9 20 -7 26 15 8 32 5 35 -23
24z"/>
<path d="M5340 4755 c0 -8 5 -15 10 -15 6 0 10 7 10 15 0 8 -4 15 -10 15 -5 0
-10 -7 -10 -15z"/>
<path d="M3508 4676 c-15 -24 -34 -43 -42 -43 -8 0 -13 4 -10 9 14 23 -11 26
-59 8 -29 -11 -53 -20 -54 -20 -1 0 -3 9 -5 20 -3 17 -11 14 -83 -30 -44 -28
-86 -50 -94 -50 -21 0 -8 -74 21 -116 27 -40 72 -64 122 -64 28 0 45 8 74 35
20 19 29 33 20 29 -11 -4 -22 2 -30 15 -7 12 -20 21 -29 21 -8 0 -29 12 -46
28 -25 21 -30 33 -26 55 6 31 24 35 44 10 16 -19 114 -83 127 -83 18 0 113
203 100 215 -1 1 -15 -16 -30 -39z"/>
<path d="M4075 4710 c17 -4 39 -8 50 -8 l20 -1 -20 9 c-11 5 -33 8 -50 8 l-30
0 30 -8z"/>
<path d="M4377 4693 c-16 -15 -5 -23 31 -22 20 1 28 4 18 6 -15 4 -16 7 -5 14
10 6 7 9 -12 9 -14 0 -29 -3 -32 -7z"/>
<path d="M4545 4670 c3 -5 10 -10 16 -10 5 0 9 5 9 10 0 6 -7 10 -16 10 -8 0
-12 -4 -9 -10z"/>
<path d="M4785 4600 c3 -5 8 -10 11 -10 2 0 4 5 4 10 0 6 -5 10 -11 10 -5 0
-7 -4 -4 -10z"/>
<path d="M4747 4343 c-4 -3 -7 -11 -7 -17 0 -6 5 -5 12 2 6 6 9 14 7 17 -3 3
-9 2 -12 -2z"/>
<path d="M5991 3834 c0 -11 3 -14 6 -6 3 7 2 16 -1 19 -3 4 -6 -2 -5 -13z"/>
<path d="M77 3783 c-15 -15 -5 -23 28 -23 19 0 35 -4 35 -9 0 -14 -23 -19 -42
-9 -12 5 -18 5 -18 -1 0 -25 82 -43 95 -21 3 6 1 10 -4 10 -6 0 -11 6 -11 14
0 33 -61 61 -83 39z"/>
<path d="M1221 3698 c-66 -11 -93 -27 -131 -74 -34 -43 -50 -54 -50 -34 0 10
-163 -117 -168 -132 -8 -19 51 -7 68 15 14 17 21 19 31 10 8 -8 16 -9 29 -1
13 8 22 6 38 -8 12 -10 22 -24 22 -32 0 -7 5 -10 12 -6 8 5 9 2 5 -10 -4 -10
-7 -24 -7 -32 0 -8 -8 -14 -19 -14 -24 0 -65 -107 -55 -144 7 -30 20 -33 46
-9 16 14 22 15 40 4 11 -7 21 -11 22 -9 2 2 8 12 15 23 10 17 11 16 6 -12 -6
-29 -4 -33 15 -33 20 0 22 -4 16 -31 -3 -17 -6 -43 -6 -56 0 -22 -2 -24 -15
-13 -13 11 -15 8 -15 -16 0 -16 5 -36 11 -44 10 -13 10 -13 6 0 -2 8 1 20 8
27 10 9 19 5 41 -18 26 -28 52 -40 39 -19 -3 6 -1 10 5 10 7 0 9 -8 5 -19 -9
-29 10 -34 36 -10 13 11 18 19 10 17 -8 -3 -23 4 -34 15 -16 16 -17 21 -6 28
12 8 12 10 0 18 -11 7 -9 13 8 30 26 26 22 36 -19 45 -35 7 -83 53 -76 73 3 7
0 24 -6 38 -14 31 -1 48 15 20 6 -11 12 -22 12 -25 6 -37 19 -50 51 -50 23 0
37 6 41 16 6 16 -14 37 -28 29 -3 -3 -14 4 -23 14 -17 18 -15 19 35 26 35 5
54 4 59 -4 8 -14 40 -4 40 13 0 7 -17 10 -50 8 -41 -3 -50 -1 -50 12 0 9 6 16
14 16 8 0 18 5 22 11 5 8 -1 10 -20 7 -14 -3 -29 -1 -32 3 -3 5 -14 9 -24 9
-10 0 -20 6 -22 12 -3 9 -12 8 -31 -5 -14 -9 -37 -17 -51 -17 -22 0 -23 3 -16
34 11 49 17 55 58 55 54 1 76 5 84 16 15 20 8 43 -22 75 -22 23 -27 36 -20 45
5 6 6 16 2 21 -4 5 -3 6 2 2 5 -4 15 -3 21 2 7 6 33 16 58 24 41 12 50 12 79
-3 17 -9 40 -29 50 -46 24 -40 25 -44 38 -92 10 -39 11 -40 35 -30 27 13 36
43 20 71 -22 40 -102 115 -145 134 -60 27 -77 30 -129 20z m-179 -173 c3 -13
1 -22 -3 -19 -9 5 -13 44 -5 44 2 0 6 -11 8 -25z m135 -11 c-3 -3 -12 -4 -19
-1 -8 3 -5 6 6 6 11 1 17 -2 13 -5z m-104 -38 c4 -10 1 -13 -9 -9 -15 6 -19
23 -5 23 5 0 11 -7 14 -14z"/>
<path d="M370 3685 c0 -2 21 -16 48 -29 55 -29 118 -106 162 -198 37 -78 39
-102 8 -92 -19 6 -21 4 -11 -7 34 -41 0 -187 -66 -283 -17 -24 -31 -51 -31
-59 0 -8 -9 -17 -20 -20 -15 -4 -22 1 -26 19 -3 13 -10 21 -15 18 -11 -7 -11
8 0 38 6 16 4 62 -6 132 l-16 107 24 17 c41 29 70 42 95 42 13 0 24 5 24 11 0
8 -17 10 -51 7 -70 -7 -99 -40 -99 -112 0 -28 5 -69 11 -90 12 -42 3 -150 -11
-141 -4 3 -6 -4 -3 -15 4 -13 -2 -29 -15 -43 -25 -26 -21 -50 18 -117 23 -40
31 -45 63 -46 31 -1 37 2 37 20 0 43 12 66 34 66 17 0 18 2 6 10 -9 6 -18 6
-24 0 -15 -15 -43 -12 -50 5 -4 10 1 15 15 15 17 0 20 5 16 21 -6 23 23 90 53
124 10 11 32 55 49 98 26 64 31 91 31 160 0 52 -5 92 -15 110 -8 15 -12 33 -9
40 4 12 -91 119 -137 154 -19 15 -89 45 -89 38z"/>
<path d="M2454 3633 c10 -11 37 -12 30 -2 -3 5 -12 9 -21 9 -9 0 -13 -3 -9 -7z"/>
<path d="M1550 3589 c7 -11 14 -19 16 -16 7 7 -7 37 -17 37 -6 0 -5 -9 1 -21z"/>
<path d="M1865 3560 c-3 -5 -1 -10 4 -10 6 0 11 5 11 10 0 6 -2 10 -4 10 -3 0
-8 -4 -11 -10z"/>
<path d="M2298 3563 c7 -3 16 -2 19 1 4 3 -2 6 -13 5 -11 0 -14 -3 -6 -6z"/>
<path d="M1285 3548 c-9 -24 11 -73 28 -72 55 3 67 5 67 13 0 5 -13 12 -30 16
-48 11 -44 23 10 30 27 4 50 11 50 16 0 14 -120 11 -125 -3z"/>
<path d="M2183 3553 c4 -6 1 -14 -5 -16 -7 -3 4 -3 24 0 33 5 39 2 47 -18 10
-24 10 -24 10 4 1 22 -3 27 -23 27 -13 0 -32 3 -42 7 -11 4 -15 3 -11 -4z"/>
<path d="M2448 3543 c7 -3 16 -2 19 1 4 3 -2 6 -13 5 -11 0 -14 -3 -6 -6z"/>
<path d="M1979 3521 c8 -5 11 -16 8 -24 -3 -8 1 -23 8 -34 13 -17 14 -16 15
13 0 30 -15 54 -34 54 -6 0 -5 -4 3 -9z"/>
<path d="M2290 3490 c0 -5 5 -10 11 -10 5 0 7 5 4 10 -3 6 -8 10 -11 10 -2 0
-4 -4 -4 -10z"/>
<path d="M2750 3496 c0 -2 13 -6 29 -8 17 -2 28 -1 25 4 -5 8 -54 12 -54 4z"/>
<path d="M1480 3462 c0 -4 9 -13 20 -20 11 -7 20 -9 20 -4 0 4 -9 13 -20 20
-11 7 -20 9 -20 4z"/>
<path d="M1601 3454 c0 -11 3 -14 6 -6 3 7 2 16 -1 19 -3 4 -6 -2 -5 -13z"/>
<path d="M2731 3455 c9 -9 23 -13 32 -9 24 9 11 24 -21 24 -24 0 -25 -2 -11
-15z"/>
<path d="M985 3440 c47 -22 67 -25 40 -6 -11 7 -33 16 -50 19 -26 5 -24 4 10
-13z"/>
<path d="M2250 3451 c0 -5 -8 -11 -17 -13 -15 -3 -14 -5 5 -10 17 -5 22 -2 22
13 0 10 -2 19 -5 19 -3 0 -5 -4 -5 -9z"/>
<path d="M5200 3431 c0 -5 8 -12 18 -16 20 -7 92 -72 92 -83 0 -5 7 -9 15 -9
11 0 15 11 15 36 0 20 3 46 6 59 6 21 4 22 -70 22 -42 0 -76 -4 -76 -9z"/>
<path d="M1640 3415 c0 -8 4 -15 10 -15 5 0 7 7 4 15 -4 8 -8 15 -10 15 -2 0
-4 -7 -4 -15z"/>
<path d="M2035 3420 c-3 -5 -1 -10 4 -10 6 0 11 5 11 10 0 6 -2 10 -4 10 -3 0
-8 -4 -11 -10z"/>
<path d="M1800 3400 c-8 -5 -12 -11 -10 -14 3 -2 14 2 24 10 22 15 10 19 -14
4z"/>
<path d="M1920 3400 c0 -5 5 -10 10 -10 6 0 10 5 10 10 0 6 -4 10 -10 10 -5 0
-10 -4 -10 -10z"/>
<path d="M2252 3375 c0 -16 2 -22 5 -12 2 9 2 23 0 30 -3 6 -5 -1 -5 -18z"/>
<path d="M942 3378 c7 -19 38 -22 38 -4 0 10 -9 16 -21 16 -12 0 -19 -5 -17
-12z"/>
<path d="M1330 3385 c0 -2 10 -10 23 -16 20 -11 21 -11 8 4 -13 16 -31 23 -31
12z"/>
<path d="M1622 3363 c-34 -42 -26 -50 13 -12 40 39 40 39 22 39 -7 0 -23 -12
-35 -27z"/>
<path d="M1505 3370 c3 -5 8 -10 11 -10 2 0 4 5 4 10 0 6 -5 10 -11 10 -5 0
-7 -4 -4 -10z"/>
<path d="M5 3355 c9 -24 10 -38 1 -85 l-6 -35 14 30 c20 40 20 80 -1 96 -15
12 -16 12 -8 -6z"/>
<path d="M1664 3340 c-18 -16 -34 -27 -37 -24 -2 3 -4 -11 -3 -30 0 -19 5 -38
10 -43 5 -4 7 3 4 18 -2 14 0 30 6 36 30 28 65 73 59 73 -5 0 -22 -13 -39 -30z"/>
<path d="M1733 3318 c7 -18 21 -34 30 -36 15 -3 14 2 -5 32 -29 44 -42 46 -25
4z"/>
<path d="M1900 3340 c20 -13 33 -13 25 0 -3 6 -14 10 -23 10 -15 0 -15 -2 -2
-10z"/>
<path d="M5900 3332 l-35 -16 31 -4 c22 -2 34 -10 37 -24 7 -25 -10 -71 -22
-63 -14 8 -25 -15 -13 -27 14 -14 60 -2 59 14 -1 34 5 46 23 51 25 7 26 37 1
37 -17 0 -36 25 -33 43 3 10 -8 8 -48 -11z"/>
<path d="M1533 3310 c0 -16 4 -30 8 -30 9 0 20 41 13 52 -11 17 -21 7 -21 -22z"/>
<path d="M2249 3308 c-2 -13 -1 -43 2 -68 5 -41 6 -39 7 23 2 67 -2 87 -9 45z"/>
<path d="M1905 3310 c-3 -5 -1 -10 4 -10 6 0 11 5 11 10 0 6 -2 10 -4 10 -3 0
-8 -4 -11 -10z"/>
<path d="M2556 3296 c-3 -14 -3 -32 0 -40 9 -23 34 -20 34 4 0 11 -6 20 -14
20 -9 0 -12 7 -9 20 3 11 3 20 0 20 -3 0 -8 -11 -11 -24z"/>
<path d="M1562 3289 c-9 -23 3 -59 19 -59 4 0 12 -14 18 -30 9 -28 9 -29 -9
-20 -14 8 -25 4 -50 -20 -43 -40 -30 -52 27 -24 25 13 55 24 65 24 20 0 24 16
6 23 -10 4 -10 8 1 15 15 11 41 -7 41 -26 0 -6 22 -32 48 -59 27 -26 52 -57
56 -68 7 -20 8 -20 21 -1 8 10 11 24 7 30 -7 13 -13 34 -15 58 -1 12 -5 14
-14 7 -9 -8 -14 -2 -20 22 -10 36 -42 63 -50 42 -7 -20 -30 -15 -36 8 -5 17
-3 18 9 8 22 -18 28 -4 8 20 -17 19 -19 19 -36 4 -18 -16 -21 -16 -51 2 -18
11 -33 18 -34 17 -5 -4 -4 3 3 21 3 10 4 21 0 24 -3 3 -10 -5 -14 -18z m185
-132 c7 -4 10 -14 7 -22 -5 -12 -10 -12 -30 3 -13 9 -24 20 -24 24 0 9 30 6
47 -5z"/>
<path d="M1815 3293 c-15 -35 -15 -53 0 -53 12 0 13 4 5 19 -12 24 7 42 21 20
10 -16 12 -8 3 15 -8 21 -20 20 -29 -1z"/>
<path d="M5766 3293 c-4 -9 -1 -20 6 -25 21 -13 25 -9 20 17 -5 29 -17 32 -26
8z"/>
<path d="M1498 3293 c7 -3 16 -2 19 1 4 3 -2 6 -13 5 -11 0 -14 -3 -6 -6z"/>
<path d="M2030 3296 c0 -2 7 -7 16 -10 8 -3 12 -2 9 4 -6 10 -25 14 -25 6z"/>
<path d="M1867 3284 c-8 -8 1 -24 14 -24 5 0 9 7 9 15 0 15 -12 20 -23 9z"/>
<path d="M888 3264 c-13 -14 -25 -14 -82 -6 -36 6 -82 8 -102 5 -30 -5 -35 -9
-30 -28 7 -29 -11 -92 -29 -99 -24 -9 -20 -73 5 -81 17 -5 20 -15 20 -69 0
-38 -6 -70 -14 -81 -13 -17 -19 -18 -55 -9 -23 6 -41 7 -41 3 0 -5 -11 -11
-24 -15 -29 -7 -24 -44 5 -44 27 0 33 -23 17 -57 -12 -25 -18 -28 -55 -25 -46
4 -65 -14 -78 -75 -5 -27 -4 -32 9 -27 21 8 76 -33 76 -57 0 -14 9 -21 31 -26
39 -8 43 -18 34 -108 -8 -93 -21 -96 -96 -25 -29 28 -57 50 -62 50 -18 0 -1
-117 22 -146 12 -15 21 -32 21 -39 0 -7 20 -20 45 -28 44 -15 46 -15 69 6 16
16 30 53 50 136 16 63 34 121 42 129 9 8 14 35 14 68 0 63 25 185 47 228 23
44 37 17 37 -73 1 -51 5 -76 11 -70 5 5 16 9 24 9 10 0 5 -11 -16 -32 -32 -34
-56 -100 -69 -192 -5 -40 -4 -47 7 -40 11 6 153 108 168 121 6 5 -31 123 -41
129 -11 7 -10 24 2 24 6 0 24 -22 41 -50 30 -49 49 -63 49 -36 0 7 20 32 45
54 54 51 61 63 70 129 13 98 -19 239 -81 363 -13 25 -28 57 -33 73 -12 31 -29
34 -53 11z m33 -50 c12 -15 11 -16 -11 -9 -35 10 -49 25 -23 25 11 0 27 -7 34
-16z m-105 -48 c7 -30 19 -35 62 -29 39 6 41 18 5 37 l-28 15 27 1 c68 1 92
-39 82 -138 -6 -61 -10 -70 -45 -104 -28 -27 -51 -39 -85 -44 -73 -11 -131 26
-63 41 l31 7 -23 24 c-17 18 -19 25 -8 29 17 6 46 2 55 -8 10 -10 44 -9 44 1
0 5 -19 12 -42 18 -24 5 -41 14 -39 19 1 6 7 9 12 8 5 -2 9 1 9 7 0 5 -15 13
-32 18 -27 7 -32 13 -30 32 2 22 1 23 -16 7 -28 -25 -44 -21 -40 10 2 23 8 28
33 30 16 1 33 -3 37 -10 5 -8 12 -1 20 21 15 38 25 41 34 8z m9 -426 c3 -5 2
-10 -4 -10 -5 0 -13 5 -16 10 -3 6 -2 10 4 10 5 0 13 -4 16 -10z"/>
<path d="M850 3040 c20 -29 40 -39 40 -22 0 10 -43 52 -54 52 -4 0 2 -13 14
-30z"/>
<path d="M1727 3264 c3 -7 9 -14 14 -14 14 0 10 17 -5 23 -10 4 -13 1 -9 -9z"/>
<path d="M1523 3253 c4 -15 0 -23 -9 -23 -17 0 -18 -12 -2 -28 22 -22 39 -14
32 16 -9 35 -28 67 -21 35z"/>
<path d="M1981 3265 c0 -5 6 -19 14 -29 8 -11 15 -15 15 -10 0 6 -7 19 -15 30
-8 10 -14 15 -14 9z"/>
<path d="M1870 3200 c0 -5 5 -10 11 -10 5 0 7 5 4 10 -3 6 -8 10 -11 10 -2 0
-4 -4 -4 -10z"/>
<path d="M4873 3192 c-13 -2 -23 -10 -23 -17 0 -8 -17 -23 -39 -34 -21 -11
-53 -32 -70 -47 l-33 -27 -36 22 c-61 36 -124 62 -146 59 -38 -6 -28 -30 34
-89 l62 -58 -18 -29 c-15 -26 -15 -34 -4 -61 12 -30 38 -46 26 -16 -6 16 51
65 75 65 20 0 97 -53 115 -79 8 -11 22 -21 30 -21 13 0 14 -10 9 -55 -9 -66 4
-72 54 -23 18 17 31 27 30 22 -4 -21 2 -24 17 -10 18 19 65 21 82 4 18 -18 14
-57 -9 -94 -26 -43 -56 -64 -91 -64 -35 0 -36 -16 -2 -24 23 -6 25 -10 19 -39
l-6 -32 17 33 c9 18 19 30 22 28 9 -10 52 -141 52 -161 0 -22 -31 -57 -109
-124 -28 -25 -51 -49 -51 -53 0 -5 12 -20 26 -35 42 -42 22 -35 -25 9 -35 33
-42 46 -39 69 4 22 2 26 -8 18 -7 -6 -19 -7 -25 -3 -7 4 -9 3 -6 -2 3 -6 2
-16 -4 -24 -6 -11 -9 -8 -9 12 0 15 -4 30 -10 33 -5 3 -10 11 -10 16 0 6 5 7
10 4 16 -10 11 15 -10 50 -19 30 -19 33 -2 47 9 9 24 18 32 21 8 2 -28 5 -80
5 -90 0 -93 -1 -55 -13 l40 -12 -66 -7 c-37 -5 -84 -18 -105 -30 -35 -20 -111
-111 -132 -161 -7 -15 -10 -8 -15 30 -5 52 6 85 48 133 l20 24 -37 -18 c-20
-9 -35 -20 -33 -24 3 -4 -4 -15 -15 -25 -11 -10 -20 -22 -20 -27 0 -6 -9 -21
-20 -35 -24 -31 -27 -51 -4 -32 13 10 17 10 25 -2 5 -8 7 -18 6 -23 -5 -15
-75 -57 -81 -48 -9 15 39 131 67 161 31 35 33 41 13 41 -19 0 -65 -82 -82
-145 -17 -62 -18 -86 -1 -82 11 2 13 -32 7 -147 -3 -67 -80 -120 -155 -106
-24 4 -31 11 -33 34 -4 28 -3 29 35 23 21 -3 47 -1 58 3 22 10 19 11 -46 15
-61 3 -69 9 -69 51 0 23 -5 34 -14 34 -8 0 -16 8 -18 18 -2 9 -7 -7 -12 -37
-4 -29 -10 -51 -13 -47 -9 9 -32 -27 -33 -51 0 -12 4 -24 9 -27 19 -12 22 -58
5 -77 -13 -15 -14 -24 -5 -50 6 -17 8 -35 5 -40 -17 -28 -24 7 -26 144 l-3
152 -37 -1 c-21 -1 -38 1 -38 3 0 2 7 19 15 39 16 38 11 87 -11 105 -8 6 -11
16 -7 22 4 7 0 8 -11 4 -11 -4 -28 1 -43 13 -39 30 -45 24 -11 -10 26 -26 29
-36 25 -68 -3 -20 -3 -29 0 -19 4 18 6 17 20 -3 13 -19 13 -24 2 -31 -8 -5
-19 -9 -24 -9 -6 0 -16 -13 -22 -30 -9 -25 -9 -30 3 -30 8 0 14 -4 14 -10 0
-29 -34 1 -35 30 0 20 -81 18 -155 -4 -70 -21 -214 -38 -310 -36 -41 1 -84 2
-95 2 -97 2 -336 36 -449 64 -32 8 -61 13 -64 10 -13 -14 100 -49 235 -72 136
-24 164 -25 345 -20 207 6 258 -1 258 -33 0 -10 8 -26 19 -35 16 -15 18 -28
14 -99 -3 -45 -7 -84 -10 -87 -2 -2 -176 -4 -386 -5 l-382 0 -3 -22 c-3 -17
-10 -23 -28 -23 -32 0 -31 -24 1 -54 31 -29 34 -52 6 -36 -29 15 -31 13 -21
-17 16 -51 21 -145 9 -159 -9 -11 -8 -14 4 -14 24 0 28 -152 25 -820 l-3 -594
-25 -14 c-23 -13 -23 -13 -3 -9 13 3 25 1 28 -3 3 -5 296 -9 651 -9 l645 -1
55 42 c30 22 57 38 60 35 3 -3 -16 -21 -42 -41 l-47 -36 532 0 531 0 0 155 0
155 91 0 92 0 -6 -73 c-4 -39 -13 -103 -22 -142 -8 -38 -15 -76 -15 -82 0 -10
30 -13 115 -13 111 0 115 1 119 23 2 12 11 75 19 141 15 118 26 145 61 150 10
1 21 8 25 14 4 7 35 13 71 14 l63 3 18 -50 c9 -27 19 -77 21 -110 3 -57 2 -60
-19 -58 -18 2 -26 -6 -38 -33 -8 -20 -15 -49 -15 -65 l0 -29 110 0 110 0 0
908 c0 616 -3 911 -10 918 -8 8 -8 25 -1 55 13 57 14 166 1 174 -19 12 -32 -6
-14 -20 16 -12 16 -13 -3 -24 -44 -23 -72 18 -37 53 15 16 28 20 52 17 9 -1
12 27 12 113 0 106 -1 115 -17 109 -10 -3 -24 -10 -30 -16 -9 -6 -18 -5 -28 3
-14 12 -10 18 30 55 l45 42 0 146 c0 81 -2 147 -6 147 -3 0 -31 -13 -62 -29
-114 -58 -138 -68 -164 -68 -23 0 -25 2 -16 17 11 17 89 70 104 70 5 0 39 15
76 33 l67 32 1 133 0 133 -216 -2 c-204 -1 -217 -2 -237 -22 l-20 -20 -18 21
c-16 21 -26 22 -168 22 -150 0 -151 0 -152 -22 0 -18 -4 -14 -19 17 -40 88
-222 209 -297 197z m28 -165 c-1 -12 -15 -9 -19 4 -3 6 1 10 8 8 6 -3 11 -8
11 -12z m53 -42 c-6 -16 -24 -21 -24 -7 0 11 11 22 21 22 5 0 6 -7 3 -15z
m966 -23 c0 -12 -44 -31 -109 -46 -31 -8 -83 -21 -116 -30 -32 -9 -86 -15
-120 -15 -33 1 -51 4 -41 6 11 3 25 11 32 17 6 7 49 20 95 30 46 10 107 24
134 31 60 15 125 18 125 7z m-870 -12 c0 -5 -2 -10 -4 -10 -3 0 -8 5 -11 10
-3 6 -1 10 4 10 6 0 11 -4 11 -10z m60 -39 c0 -6 -4 -13 -10 -16 -5 -3 -10 1
-10 9 0 9 5 16 10 16 6 0 10 -4 10 -9z m351 -162 c-16 -6 -28 -6 -35 1 -7 7 1
10 25 9 32 0 33 -1 10 -10z m-271 -181 c0 -100 -3 -178 -7 -174 -4 4 -8 17 -8
29 -1 12 -2 41 -3 64 -1 26 -9 49 -21 60 -11 11 -21 39 -24 69 -5 46 -3 54 18
74 14 13 27 31 31 42 3 10 7 18 10 18 2 0 4 -82 4 -182z m304 127 c7 -19 -12
-28 -51 -23 -17 2 -29 10 -31 21 -3 14 4 17 36 17 27 0 42 -5 46 -15z m71
-225 c-57 -57 -85 -65 -85 -22 0 51 18 63 115 70 14 2 7 -10 -30 -48z m-865
-115 c-7 -9 -15 -13 -18 -10 -3 3 -14 -2 -24 -12 -10 -9 -18 -11 -18 -6 0 15
28 36 39 29 5 -4 12 -2 16 4 3 5 9 10 12 10 3 0 0 -7 -7 -15z m420 -18 c0 -2
-9 -12 -20 -22 -24 -21 -27 -14 -4 9 15 15 24 20 24 13z m367 -44 c2 -6 -6
-14 -18 -18 l-22 -7 24 -19 c20 -16 22 -20 9 -29 -8 -5 -43 -10 -76 -10 -47 0
-63 4 -68 16 -8 21 -8 69 1 78 12 11 146 2 150 -11z m-486 -76 l-24 -22 19 27
c10 14 21 24 23 22 3 -3 -6 -15 -18 -27z m-1111 -8 c6 -10 7 -19 2 -19 -5 0
-14 12 -20 26 -14 29 2 24 18 -7z m1966 0 c3 -6 15 -8 26 -6 14 4 18 1 14 -8
-3 -8 -1 -17 4 -20 16 -10 21 -89 8 -139 -15 -57 -43 -81 -105 -91 -52 -8 -78
14 -88 76 l-7 42 -35 -41 c-19 -23 -39 -42 -45 -42 -18 0 -73 -52 -88 -84 -9
-19 -24 -32 -38 -34 -15 -2 -22 -9 -20 -20 5 -32 -12 -42 -68 -42 l-54 0 -1
-92 c0 -100 -8 -220 -15 -227 -2 -2 -7 -1 -11 3 -7 7 -10 216 -4 276 3 19 -2
50 -10 68 -22 52 -6 67 76 67 66 0 69 1 77 28 6 15 14 27 20 27 16 0 77 51 83
69 3 10 22 27 43 39 21 11 54 39 74 61 20 23 45 41 55 41 15 0 15 2 3 10 -12
7 -12 12 4 29 21 23 90 30 102 10z m-886 -13 c0 -3 -4 -8 -10 -11 -5 -3 -10
-1 -10 4 0 6 5 11 10 11 6 0 10 -2 10 -4z m65 -67 c45 -40 45 -69 0 -125 -19
-23 -35 -47 -35 -52 0 -14 -25 -22 -67 -22 -62 0 -136 98 -88 116 8 4 15 12
15 18 0 7 14 31 31 54 27 37 36 42 70 42 29 0 47 -8 74 -31z m324 -130 c7 -84
4 -93 -19 -79 -16 10 -26 114 -16 156 12 47 29 10 35 -77z m-1579 37 c0 -3 -4
-8 -10 -11 -5 -3 -10 -1 -10 4 0 6 5 11 10 11 6 0 10 -2 10 -4z m1056 -103
c-7 -7 -26 7 -26 19 0 6 6 6 15 -2 9 -7 13 -15 11 -17z m1081 10 c-3 -10 -8
-34 -11 -54 -4 -21 -13 -42 -21 -49 -8 -7 -15 -23 -15 -37 0 -21 -2 -22 -21
-13 -33 18 -33 5 0 -23 l30 -25 -61 -116 c-33 -64 -63 -116 -67 -116 -7 0 -27
97 -37 183 -7 56 -6 57 18 57 13 0 35 11 48 25 l23 25 -26 21 c-52 40 -24 96
52 106 22 3 46 12 52 19 17 20 41 18 36 -3z m-1857 -14 c0 -4 -9 -7 -19 -6
-11 0 -18 4 -16 7 6 9 35 8 35 -1z m783 -69 c-3 -12 -8 -19 -11 -16 -5 6 5 36
12 36 2 0 2 -9 -1 -20z m-510 -37 c-7 -45 -8 -47 -22 -38 -15 8 -14 48 1 63
21 21 27 13 21 -25z m-1368 -324 c-4 -5 3 -9 13 -9 11 0 25 -7 32 -15 9 -11 9
-15 1 -15 -7 0 -9 -4 -6 -10 11 -17 -3 -11 -29 14 -25 22 -37 64 -16 51 6 -4
8 -11 5 -16z m2050 -39 c3 -5 1 -10 -4 -10 -6 0 -11 5 -11 10 0 6 2 10 4 10 3
0 8 -4 11 -10z m-25 -10 c0 -9 -29 -14 -68 -13 -7 1 -11 -5 -8 -12 2 -7 -37
-142 -89 -300 l-93 -287 24 -35 c13 -20 23 -48 23 -62 -1 -14 3 -38 9 -53 8
-19 8 -29 1 -34 -15 -9 -61 17 -55 32 3 8 -3 10 -17 6 -21 -5 -21 -4 -4 15 9
11 17 27 17 36 0 9 7 17 15 17 8 0 15 5 15 11 0 6 -7 8 -16 5 -8 -3 -12 -2 -9
3 3 5 1 12 -3 15 -8 5 -31 -52 -132 -337 -16 -42 -24 -77 -19 -77 5 0 9 4 9 8
0 4 12 7 28 6 15 -1 33 -3 40 -3 6 -1 12 -7 12 -14 0 -9 12 -11 40 -9 22 2 40
2 40 -1 0 -3 -14 -14 -31 -25 l-32 -20 -23 27 c-13 14 -24 20 -24 13 0 -7 -4
-11 -9 -8 -14 9 -41 -4 -41 -20 0 -7 9 -18 20 -24 11 -6 20 -18 20 -26 0 -8
-4 -13 -9 -10 -4 3 -20 -8 -35 -24 -29 -33 -56 -39 -56 -12 -1 9 -9 0 -20 -22
-23 -46 -35 -60 -26 -29 6 18 4 20 -14 16 -13 -4 -20 -1 -20 10 0 19 -47 20
-54 1 -3 -8 -13 -14 -22 -14 -15 0 -15 2 2 21 10 11 30 42 44 67 22 40 31 48
67 55 24 4 47 16 52 25 5 9 44 123 86 252 43 129 82 244 88 255 22 43 183 550
175 553 -17 7 -7 21 20 25 53 8 82 7 82 -3z m451 -30 c-3 -37 -16 -51 -38 -43
-26 10 -63 -7 -64 -30 -1 -21 -1 -20 -8 3 -5 14 -14 35 -21 46 -21 34 -7 52
42 56 93 7 93 7 89 -32z m-430 -47 c50 -114 48 -123 -5 -29 -39 70 -41 76 -26
76 6 0 20 -21 31 -47z m-910 7 c35 -10 119 -87 119 -110 0 -5 7 -10 15 -10 13
0 14 -4 5 -21 -6 -11 -9 -28 -7 -37 3 -12 5 -11 6 6 0 12 7 22 15 22 33 0 25
-66 -10 -82 -14 -7 -26 -23 -30 -42 -11 -54 -62 -96 -132 -109 -28 -6 -34 -3
-41 16 -8 20 -10 19 -29 -20 -12 -22 -38 -51 -58 -63 -32 -20 -34 -24 -21 -38
14 -13 13 -17 -6 -32 -18 -15 -19 -20 -8 -34 12 -14 10 -15 -18 -10 -17 4 -31
2 -31 -3 0 -12 -78 -39 -87 -30 -3 4 2 16 12 28 16 16 17 22 6 28 -11 7 -9 17
10 50 17 31 42 53 102 88 44 26 93 61 110 80 23 25 39 33 66 34 20 1 28 3 18
6 -30 8 -82 -6 -105 -27 l-22 -20 -29 31 c-28 29 -48 66 -39 74 1 1 19 13 38
25 l35 22 -32 -4 c-18 -3 -33 -1 -33 4 0 12 49 21 63 12 7 -5 4 -1 -7 9 -11
10 -26 15 -35 12 -32 -13 -36 -9 -35 28 2 64 55 107 154 126 3 0 21 -4 41 -9z
m1664 -130 c-3 -5 -10 -10 -16 -10 -5 0 -9 5 -9 10 0 6 7 10 16 10 8 0 12 -4
9 -10z m-435 -25 c0 -14 -4 -25 -9 -25 -12 0 -23 29 -15 41 10 18 24 9 24 -16z
m555 17 c6 -4 11 -22 10 -39 0 -18 4 -33 10 -33 5 0 4 -5 -2 -11 -7 -7 -22 -8
-47 -1 -19 6 -44 8 -54 5 -26 -7 -40 28 -16 42 9 6 24 18 33 27 17 17 49 23
66 10z m-195 -41 c0 -11 5 -23 10 -26 12 -8 13 -25 1 -25 -13 0 -43 49 -36 60
10 17 25 11 25 -9z m-94 -27 c-5 -14 -4 -15 8 -5 11 9 16 9 21 0 6 -8 10 -7
17 2 6 11 8 9 6 -6 -2 -12 3 -20 12 -20 15 0 39 -23 40 -39 0 -4 -7 -5 -15 -2
-10 4 -19 -3 -27 -18 -13 -31 -46 -40 -75 -20 -27 17 -30 51 -5 71 12 10 13
16 5 19 -10 4 -10 8 0 19 16 19 20 18 13 -1z m147 -44 c3 -13 0 -20 -8 -20
-17 0 -28 17 -20 30 10 16 22 12 28 -10z m-255 -12 c7 -7 12 -19 12 -27 0 -22
-31 -101 -40 -101 -14 0 -18 64 -8 103 12 40 17 44 36 25z m-312 -50 c8 -16
13 -32 11 -34 -5 -5 -47 58 -47 70 0 14 21 -6 36 -36z m-1666 -9 c0 -6 -4 -7
-10 -4 -5 3 -10 11 -10 16 0 6 5 7 10 4 6 -3 10 -11 10 -16z m775 -98 c-3 -16
-2 -20 2 -11 10 20 34 24 44 9 10 -17 -8 -49 -25 -43 -9 4 -15 -7 -19 -38 -3
-23 -13 -47 -21 -54 -9 -6 -16 -22 -16 -35 0 -34 96 -310 104 -302 4 4 4 0 1
-9 -4 -9 1 -30 9 -46 25 -48 47 -121 41 -132 -3 -6 -15 -10 -26 -10 -11 0 -42
-11 -69 -25 l-49 -25 -12 23 c-12 22 -27 73 -54 192 -8 33 -14 86 -15 119 0
48 -3 57 -15 52 -19 -7 -22 3 -28 77 -4 57 -3 57 24 57 27 0 59 22 59 40 0 5
11 20 25 34 23 23 34 56 18 56 -3 0 -15 -7 -25 -17 -16 -14 -18 -14 -18 -1 0
9 7 35 15 59 11 30 14 62 10 99 l-6 55 26 -49 c15 -31 23 -59 20 -75z m-895
38 c0 -6 -4 -7 -10 -4 -5 3 -10 11 -10 16 0 6 5 7 10 4 6 -3 10 -11 10 -16z
m924 4 c4 -9 3 -20 -2 -25 -6 -6 -11 1 -14 16 -6 29 6 35 16 9z m176 -22 c66
-7 120 -19 147 -32 46 -22 56 -39 23 -39 -11 0 -20 4 -20 9 0 18 -68 39 -145
44 -50 4 -74 2 -65 -3 8 -6 43 -10 77 -10 67 0 75 -5 66 -38 -4 -19 -8 -20
-20 -10 -12 10 -17 9 -24 -5 -6 -9 -17 -17 -26 -17 -11 0 -14 -7 -11 -25 3
-14 1 -25 -3 -25 -5 0 -9 7 -9 15 0 8 -4 15 -9 15 -6 0 -11 17 -13 37 -3 37
-21 54 -85 83 -13 5 -23 14 -23 20 0 7 6 7 18 1 9 -5 64 -14 122 -20z m-844
-22 c14 -13 20 -27 16 -38 -5 -14 -4 -14 11 -2 15 12 17 11 17 -14 l0 -27 -38
30 c-22 18 -38 39 -38 51 0 26 4 26 32 0z m787 -37 c10 -11 13 -22 7 -31 -4
-8 -5 -24 -1 -35 9 -26 3 -58 -9 -51 -5 3 -7 20 -3 37 5 26 4 30 -10 25 -14
-5 -17 0 -17 33 0 44 8 49 33 22z m1011 -93 c7 -41 2 -59 -15 -59 -5 0 -9 23
-9 50 0 60 15 66 24 9z m-469 -9 c3 -5 1 -10 -4 -10 -6 0 -11 5 -11 10 0 6 2
10 4 10 3 0 8 -4 11 -10z m-45 -49 c0 -12 -20 -25 -27 -18 -7 7 6 27 18 27 5
0 9 -4 9 -9z m-1085 -52 c11 -17 -1 -21 -15 -4 -8 9 -8 15 -2 15 6 0 14 -5 17
-11z m991 -108 c-15 -15 -16 -13 -4 19 9 26 13 30 16 16 2 -10 -3 -26 -12 -35z
m-882 -64 c-4 -13 -9 -14 -19 -4 -11 10 -10 13 4 18 20 8 23 6 15 -14z m936 3
c0 -5 -2 -10 -4 -10 -3 0 -8 5 -11 10 -3 6 -1 10 4 10 6 0 11 -4 11 -10z
m-150 -74 c0 -2 -9 -6 -20 -9 -11 -3 -18 -1 -14 4 5 9 34 13 34 5z m-66 -31
c-4 -9 -15 -20 -26 -26 -19 -10 -19 -10 -3 15 19 28 38 35 29 11z m-189 -60
c19 -16 24 -25 15 -25 -8 0 -28 11 -44 25 -38 32 -11 32 29 0z m217 -119 c-3
-5 -11 3 -19 17 -9 18 -19 25 -31 21 -14 -5 -15 -4 -2 5 11 8 20 5 36 -12 12
-12 19 -26 16 -31z m-27 -58 c0 -16 -3 -28 -7 -28 -4 0 -7 -3 -7 -7 3 -21 -3
-32 -19 -37 -9 -3 -25 -18 -35 -33 l-18 -28 5 27 c3 14 2 37 -3 50 -9 21 -10
21 -11 3 -1 -19 -2 -19 -12 3 -6 12 -16 22 -21 22 -14 0 24 41 48 51 11 4 33
7 49 6 25 -2 30 -7 31 -29z m-270 -25 c-6 -2 -38 -21 -70 -43 -66 -43 -88 -51
-60 -20 10 11 22 20 26 20 4 0 20 11 35 25 15 14 33 24 41 21 7 -3 15 -1 19 5
3 6 9 7 13 3 3 -4 1 -8 -4 -11z m-602 -9 c21 -8 9 -44 -15 -44 -11 0 -26 -7
-34 -15 -19 -19 -54 -20 -54 -1 0 17 56 66 75 66 7 0 20 -3 28 -6z m-596 -66
c-3 -7 -5 -2 -5 12 0 14 2 19 5 13 2 -7 2 -19 0 -25z m1443 -2 c0 -23 -11 -46
-20 -41 -10 6 0 55 11 55 5 0 9 -6 9 -14z m-97 -10 c6 -15 -19 -43 -29 -33 -8
8 5 47 16 47 4 0 10 -6 13 -14z"/>
<path d="M4987 2091 c15 -16 30 -24 32 -18 2 6 -6 19 -19 29 -35 28 -44 21
-13 -11z"/>
<path d="M4040 1270 c-8 -5 -12 -12 -9 -15 4 -3 12 1 19 10 14 17 11 19 -10 5z"/>
<path d="M4050 1235 c-16 -19 0 -19 36 0 l29 15 -26 0 c-15 0 -32 -7 -39 -15z"/>
<path d="M4000 1126 c-30 -30 12 -29 55 1 19 13 18 13 -13 11 -18 -1 -37 -7
-42 -12z"/>
<path d="M5824 1210 c-20 -8 -42 -30 -30 -30 13 0 56 24 56 32 0 9 1 9 -26 -2z"/>
<path d="M1480 3180 c0 -5 5 -10 11 -10 5 0 7 5 4 10 -3 6 -8 10 -11 10 -2 0
-4 -4 -4 -10z"/>
<path d="M1790 3180 c0 -5 5 -10 10 -10 6 0 10 5 10 10 0 6 -4 10 -10 10 -5 0
-10 -4 -10 -10z"/>
<path d="M2069 3173 c-13 -16 -12 -17 4 -4 9 7 17 15 17 17 0 8 -8 3 -21 -13z"/>
<path d="M3285 3155 c0 -19 3 -35 8 -35 4 0 7 9 7 19 0 11 3 26 6 35 4 10 1
16 -7 16 -9 0 -14 -12 -14 -35z"/>
<path d="M1885 3170 c-3 -5 -1 -10 4 -10 6 0 11 5 11 10 0 6 -2 10 -4 10 -3 0
-8 -4 -11 -10z"/>
<path d="M1975 3170 c3 -5 8 -10 11 -10 2 0 4 5 4 10 0 6 -5 10 -11 10 -5 0
-7 -4 -4 -10z"/>
<path d="M1847 3150 c-3 -11 -3 -20 -1 -20 2 0 8 9 14 20 6 11 7 20 2 20 -6 0
-12 -9 -15 -20z"/>
<path d="M1816 3141 c-4 -7 -5 -15 -2 -18 9 -9 19 4 14 18 -4 11 -6 11 -12 0z"/>
<path d="M2000 3140 c0 -5 5 -10 11 -10 5 0 7 5 4 10 -3 6 -8 10 -11 10 -2 0
-4 -4 -4 -10z"/>
<path d="M2115 3110 c-3 -5 1 -10 10 -10 9 0 13 5 10 10 -3 6 -8 10 -10 10 -2
0 -7 -4 -10 -10z"/>
<path d="M1854 3084 c3 -8 2 -12 -4 -9 -15 9 -12 -11 3 -22 8 -7 18 -4 31 10
18 19 18 20 2 14 -14 -5 -17 -3 -12 8 3 9 0 15 -10 15 -11 0 -14 -6 -10 -16z"/>
<path d="M2328 3093 c7 -3 16 -2 19 1 4 3 -2 6 -13 5 -11 0 -14 -3 -6 -6z"/>
<path d="M2805 3089 c-4 -6 -5 -12 -2 -15 2 -3 7 2 10 11 7 17 1 20 -8 4z"/>
<path d="M461 3064 c0 -11 3 -14 6 -6 3 7 2 16 -1 19 -3 4 -6 -2 -5 -13z"/>
<path d="M2320 3050 c0 -5 4 -10 9 -10 6 0 13 5 16 10 3 6 -1 10 -9 10 -9 0
-16 -4 -16 -10z"/>
<path d="M2390 3050 c0 -5 5 -10 10 -10 6 0 10 5 10 10 0 6 -4 10 -10 10 -5 0
-10 -4 -10 -10z"/>
<path d="M2478 3043 c7 -3 16 -2 19 1 4 3 -2 6 -13 5 -11 0 -14 -3 -6 -6z"/>
<path d="M2535 3040 c4 -6 11 -8 16 -5 14 9 11 15 -7 15 -8 0 -12 -5 -9 -10z"/>
<path d="M553 3024 c-3 -8 1 -23 10 -31 14 -14 18 -13 46 6 17 13 29 27 26 32
-10 16 -75 11 -82 -7z"/>
<path d="M1956 3013 c-6 -14 -5 -15 5 -6 7 7 10 15 7 18 -3 3 -9 -2 -12 -12z"/>
<path d="M1810 3005 c0 -5 5 -17 10 -25 5 -8 10 -10 10 -5 0 6 -5 17 -10 25
-5 8 -10 11 -10 5z"/>
<path d="M2135 3000 c3 -5 8 -10 11 -10 2 0 4 5 4 10 0 6 -5 10 -11 10 -5 0
-7 -4 -4 -10z"/>
<path d="M2200 3000 c0 -5 5 -10 10 -10 6 0 10 5 10 10 0 6 -4 10 -10 10 -5 0
-10 -4 -10 -10z"/>
<path d="M3476 2997 c3 -10 9 -15 12 -12 3 3 0 11 -7 18 -10 9 -11 8 -5 -6z"/>
<path d="M3535 3000 c3 -5 8 -10 11 -10 2 0 4 5 4 10 0 6 -5 10 -11 10 -5 0
-7 -4 -4 -10z"/>
<path d="M3561 2994 c-7 -8 -20 -13 -28 -9 -13 4 -14 3 -3 -10 7 -8 17 -12 22
-9 6 4 14 0 19 -7 4 -7 11 -10 16 -6 4 5 1 13 -7 18 -11 8 -12 12 -2 16 13 5
17 23 5 23 -5 -1 -14 -8 -22 -16z"/>
<path d="M3650 3000 c0 -5 5 -10 10 -10 6 0 10 5 10 10 0 6 -4 10 -10 10 -5 0
-10 -4 -10 -10z"/>
<path d="M1860 2990 c0 -5 7 -10 16 -10 8 0 12 5 9 10 -3 6 -10 10 -16 10 -5
0 -9 -4 -9 -10z"/>
<path d="M2328 2993 c7 -3 16 -2 19 1 4 3 -2 6 -13 5 -11 0 -14 -3 -6 -6z"/>
<path d="M2475 2990 c3 -5 11 -10 16 -10 6 0 7 5 4 10 -3 6 -11 10 -16 10 -6
0 -7 -4 -4 -10z"/>
<path d="M2535 2990 c-3 -5 1 -10 9 -10 9 0 16 5 16 10 0 6 -4 10 -9 10 -6 0
-13 -4 -16 -10z"/>
<path d="M3330 2990 c0 -5 5 -10 10 -10 6 0 10 5 10 10 0 6 -4 10 -10 10 -5 0
-10 -4 -10 -10z"/>
<path d="M3440 2984 c0 -8 5 -12 10 -9 6 4 8 11 5 16 -9 14 -15 11 -15 -7z"/>
<path d="M3600 2985 c0 -6 9 -11 20 -12 11 -1 20 4 20 10 0 7 -9 13 -20 13
-11 0 -20 -5 -20 -11z"/>
<path d="M3831 2984 c0 -11 3 -14 6 -6 3 7 2 16 -1 19 -3 4 -6 -2 -5 -13z"/>
<path d="M3860 2984 c0 -8 5 -12 10 -9 6 4 8 11 5 16 -9 14 -15 11 -15 -7z"/>
<path d="M3665 2974 c-10 -8 -15 -17 -11 -21 4 -4 11 -1 17 7 8 13 10 13 18 0
6 -8 13 -11 17 -8 3 4 0 13 -8 21 -12 12 -17 12 -33 1z"/>
<path d="M3720 2980 c0 -5 5 -10 10 -10 6 0 10 5 10 10 0 6 -4 10 -10 10 -5 0
-10 -4 -10 -10z"/>
<path d="M3784 2973 c10 -13 23 -20 29 -16 7 4 6 8 -3 11 -8 3 -22 10 -30 16
-8 6 -7 1 4 -11z"/>
<path d="M1871 2927 c-12 -24 -21 -49 -21 -56 0 -20 48 42 55 72 11 42 -11 32
-34 -16z"/>
<path d="M3750 2960 c0 -5 5 -10 10 -10 6 0 10 5 10 10 0 6 -4 10 -10 10 -5 0
-10 -4 -10 -10z"/>
<path d="M3890 2960 c0 -5 5 -10 11 -10 5 0 7 5 4 10 -3 6 -8 10 -11 10 -2 0
-4 -4 -4 -10z"/>
<path d="M3935 2960 c-3 -5 1 -10 10 -10 9 0 13 5 10 10 -3 6 -8 10 -10 10 -2
0 -7 -4 -10 -10z"/>
<path d="M240 2949 c-19 -4 -81 -9 -137 -11 l-103 -3 0 -97 c0 -81 3 -98 15
-98 8 0 15 -4 15 -10 0 -5 -7 -10 -15 -10 -19 0 -21 -99 -2 -119 9 -11 9 -14
0 -18 -20 -7 -18 -243 1 -243 16 0 29 -27 20 -41 -3 -5 -12 -9 -20 -9 -12 0
-14 -47 -14 -309 l0 -309 109 -27 c61 -15 114 -24 119 -21 5 3 44 -48 86 -114
l78 -120 -16 -47 c-26 -78 -34 -170 -22 -232 l11 -56 120 -17 c104 -15 123
-15 142 -3 20 14 25 10 108 -88 78 -92 85 -105 80 -132 -16 -69 -17 -80 -7
-66 19 27 30 3 19 -44 -10 -45 -32 -60 -40 -27 -7 27 -8 -60 -1 -111 7 -52 3
-50 162 -66 71 -7 90 -6 134 11 l51 19 24 -23 c28 -26 25 -50 -13 -108 -25
-37 -25 -39 -9 -70 9 -18 15 -43 12 -56 -4 -21 -2 -22 11 -12 13 11 14 11 8 0
-5 -8 -1 -19 10 -27 11 -8 15 -15 10 -15 -5 0 -2 -8 5 -17 11 -13 11 -15 1 -9
-9 5 -17 -2 -25 -23 -6 -17 -14 -31 -17 -31 -3 0 -6 -32 -8 -70 l-2 -70 535 0
c421 0 535 3 536 13 1 6 2 18 3 25 0 8 12 20 26 28 17 10 18 13 5 9 -11 -4
-35 -9 -52 -12 -32 -5 -33 -5 -33 31 l0 37 124 60 c68 32 128 59 135 59 15 0
14 10 -5 31 -9 10 -19 46 -24 81 -20 154 -77 241 -214 323 -91 54 -153 97
-187 130 -29 28 -98 44 -218 51 -99 6 -126 4 -153 -9 -18 -8 -86 -40 -151 -71
l-119 -56 -70 73 c-39 39 -123 133 -186 207 -63 74 -120 140 -126 145 -12 11
-149 193 -248 330 -74 102 -158 230 -158 239 0 3 24 6 53 7 l52 0 -45 21 c-25
11 -58 26 -73 34 -16 8 -35 14 -43 14 -9 0 -14 11 -14 34 0 41 -19 59 -54 50
-23 -5 -26 -3 -26 20 0 34 -33 35 -56 2 -18 -29 -13 -42 32 -80 18 -14 35 -38
38 -52 6 -22 11 -25 31 -20 18 5 25 2 25 -8 0 -8 4 -16 8 -18 14 -5 122 -167
122 -181 0 -8 -11 -26 -25 -41 -25 -27 -32 -28 -81 -9 -7 2 -24 -12 -39 -31
-30 -40 -45 -44 -61 -18 -130 201 -136 214 -125 239 6 13 26 30 44 38 26 11
29 15 14 20 -40 16 -98 165 -63 165 21 0 25 20 11 60 -37 104 -39 117 -22 184
9 36 24 74 34 86 44 51 67 70 84 70 23 0 29 11 22 38 -5 19 -10 21 -46 15
l-40 -6 6 34 c3 19 9 44 13 56 5 19 1 23 -27 31 -29 7 -34 13 -35 39 -1 16 -4
35 -8 42 -10 15 -3 14 39 -6 33 -16 46 -33 25 -33 -5 0 -10 -7 -10 -16 0 -9 7
-14 17 -12 12 2 20 16 24 40 3 20 11 44 19 52 11 14 7 16 -36 16 -53 0 -104
32 -104 64 0 10 -5 27 -11 38 -11 20 -12 20 -24 4 -20 -27 -30 1 -10 30 12 18
15 43 13 89 -2 50 1 69 14 82 16 16 17 14 11 -19 -4 -30 -1 -41 20 -62 45 -45
58 -32 33 29 -9 20 -12 49 -9 70 3 19 4 35 2 34 -2 -1 -20 -5 -39 -10z m-196
-415 c4 -11 1 -14 -11 -12 -9 2 -18 9 -21 16 -6 18 25 15 32 -4z m-9 -95 c4
-11 4 -23 0 -27 -7 -7 -25 17 -25 36 0 20 18 14 25 -9z m52 -21 c-3 -8 -6 -5
-6 6 -1 11 2 17 5 13 3 -3 4 -12 1 -19z m-20 -44 c-3 -3 -12 -4 -19 -1 -8 3
-5 6 6 6 11 1 17 -2 13 -5z m-2 -32 c-3 -3 -11 0 -18 7 -9 10 -8 11 6 5 10 -3
15 -9 12 -12z m125 -27 c-7 -9 -15 -13 -17 -11 -7 7 7 26 19 26 6 0 6 -6 -2
-15z m-65 -64 c3 -5 1 -12 -5 -16 -5 -3 -10 1 -10 9 0 18 6 21 15 7z m418
-812 c-14 -14 -43 0 -36 17 4 10 10 11 25 3 13 -7 17 -14 11 -20z m-14 -187
c23 -8 11 -29 -14 -24 -18 3 -25 11 -25 28 0 13 -4 24 -10 24 -11 0 -13 40 -3
66 5 13 11 3 24 -37 10 -29 22 -55 28 -57z m48 75 c15 -15 14 -15 -20 -5 -40
12 -49 26 -17 23 11 -1 28 -9 37 -18z m73 -57 l-12 -22 -15 21 c-8 13 -12 30
-8 42 7 21 7 21 27 1 17 -16 18 -23 8 -42z m96 20 c-1 -33 -19 -56 -35 -46
-13 9 -9 39 8 60 20 24 28 20 27 -14z m76 -22 c21 -23 38 -44 38 -48 0 -3 8
-15 18 -26 9 -10 35 -42 57 -69 22 -28 55 -67 75 -88 55 -60 56 -65 20 -98
-17 -17 -38 -28 -46 -25 -8 3 -14 0 -15 -7 0 -9 -2 -9 -6 1 -7 19 -28 15 -70
-14 l-38 -26 -57 63 c-61 67 -68 83 -42 93 9 4 14 9 11 12 -3 3 -14 1 -25 -5
-17 -9 -24 -7 -41 16 l-21 26 30 21 c16 12 30 24 30 27 0 4 -52 15 -115 24
-63 10 -119 23 -125 30 -16 20 0 24 55 14 68 -11 87 -11 80 0 -13 22 66 34
106 17 13 -6 19 2 27 35 6 23 8 48 5 55 -10 26 10 14 49 -28z m-422 22 c0 -5
-4 -10 -10 -10 -5 0 -11 -15 -11 -32 -1 -19 -3 -25 -6 -15 -6 24 5 67 17 67 6
0 10 -4 10 -10z m210 -70 c0 -5 -4 -10 -10 -10 -5 0 -10 5 -10 10 0 6 5 10 10
10 6 0 10 -4 10 -10z m-230 -60 c0 -5 -4 -10 -10 -10 -5 0 -10 5 -10 10 0 6 5
10 10 10 6 0 10 -4 10 -10z m735 -250 c3 -5 -1 -10 -9 -10 -8 0 -18 5 -21 10
-3 6 1 10 9 10 8 0 18 -4 21 -10z m-118 -32 c7 -6 10 -14 7 -19 -9 -15 -33
-10 -43 9 -8 15 -6 19 7 19 9 0 23 -4 29 -9z m68 -28 c3 -5 2 -10 -4 -10 -5 0
-13 5 -16 10 -3 6 -2 10 4 10 5 0 13 -4 16 -10z m-113 -52 c-3 -21 0 -35 11
-43 9 -6 21 -23 26 -38 8 -21 7 -25 -4 -20 -9 3 -15 -1 -15 -11 0 -9 7 -16 16
-16 8 0 13 -4 9 -9 -3 -6 -14 -9 -25 -8 -14 1 -22 11 -26 34 -3 18 -10 36 -15
39 -9 5 -4 37 12 82 12 31 16 27 11 -10z m344 -129 c-15 -17 -41 -58 -57 -90
-32 -63 -41 -69 -61 -40 -10 14 -36 22 -108 31 -118 15 -120 16 -120 36 0 13
8 15 53 10 88 -11 152 -12 155 -1 1 6 -3 10 -10 10 -6 0 -13 6 -15 13 -6 15 7
15 41 2 24 -9 26 -7 26 15 0 15 -6 25 -14 25 -8 0 -19 14 -25 31 -6 17 -15 28
-21 24 -6 -3 -8 -11 -4 -16 3 -6 -6 -22 -20 -36 -22 -21 -27 -23 -31 -9 -3 9
-8 24 -12 34 -10 26 -10 63 0 69 4 3 11 -4 14 -16 7 -26 8 -26 61 1 26 14 40
28 37 36 -15 40 15 27 73 -31 l65 -65 -27 -33z m-126 121 c0 -5 -5 -10 -11
-10 -5 0 -7 5 -4 10 3 6 8 10 11 10 2 0 4 -4 4 -10z m-270 -59 c0 -26 -16 -35
-24 -15 -10 25 -7 34 9 34 8 0 15 -9 15 -19z m170 -41 c0 -13 -7 -20 -20 -20
-19 0 -27 20 -13 33 13 14 33 6 33 -13z m-232 -62 c-5 -16 -48 -24 -48 -10 0
11 17 20 38 21 8 1 12 -5 10 -11z m269 6 c-3 -3 -12 -4 -19 -1 -8 3 -5 6 6 6
11 1 17 -2 13 -5z m491 -19 c0 -30 -15 -42 -31 -25 -9 10 -9 11 1 6 6 -4 12
-3 12 1 0 5 -6 15 -12 22 -11 10 -10 11 5 6 10 -4 17 -2 17 4 0 6 2 11 4 11 2
0 4 -11 4 -25z m79 -1 c8 -21 -19 -46 -40 -38 -17 6 -23 35 -10 47 12 13 44 7
50 -9z m169 -29 c-3 -8 -10 -15 -15 -15 -7 0 -6 10 1 26 12 26 25 16 14 -11z
m-409 3 c-3 -8 -6 -5 -6 6 -1 11 2 17 5 13 3 -3 4 -12 1 -19z m446 2 c-8 -30
-21 -34 -15 -5 2 14 8 25 12 25 5 0 6 -9 3 -20z m46 8 c0 -7 -4 -22 -9 -33 -7
-17 -9 -15 -9 13 -1 17 4 32 9 32 6 0 10 -6 9 -12z m76 -27 c-4 -20 -13 -31
-23 -31 -51 1 -56 51 -7 61 38 7 38 7 30 -30z m-500 19 c3 -5 1 -10 -4 -10 -6
0 -11 5 -11 10 0 6 2 10 4 10 3 0 8 -4 11 -10z m90 -68 c-5 -33 -10 -39 -26
-35 -18 5 -19 6 -2 19 14 10 15 15 6 25 -10 10 -9 15 5 25 23 17 25 12 17 -34z
m-198 6 c-3 -7 -5 -2 -5 12 0 14 2 19 5 13 2 -7 2 -19 0 -25z m426 -1 c27 -10
18 -51 -11 -55 -13 -2 -25 3 -28 12 -8 20 5 73 14 60 4 -6 15 -13 25 -17z
m-197 -27 c1 -16 -3 -27 -7 -24 -11 6 -12 54 -1 54 4 0 7 -13 8 -30z m36 -5
c-5 -16 -11 -25 -14 -20 -6 11 10 61 17 53 2 -2 1 -17 -3 -33z m65 29 c-3 -3
-12 -4 -19 -1 -8 3 -5 6 6 6 11 1 17 -2 13 -5z m-365 -29 c3 -13 1 -22 -3 -19
-9 5 -13 44 -5 44 2 0 6 -11 8 -25z m546 -8 c2 -16 -2 -27 -9 -27 -7 0 -9 10
-7 25 4 16 0 26 -11 29 -10 3 -9 4 4 3 14 -2 21 -11 23 -30z m-168 13 c0 -5
-10 -15 -22 -21 -23 -12 -23 -12 -4 10 21 23 26 26 26 11z m243 1 c11 -1 9
-49 -3 -56 -6 -4 -10 5 -10 19 0 31 -20 35 -27 6 -3 -11 -9 -20 -14 -20 -5 0
-6 7 -4 15 3 8 7 21 9 29 3 8 13 13 23 11 10 -2 21 -4 26 -4z m-116 -26 c0 -8
-4 -12 -9 -9 -5 3 -6 10 -3 15 9 13 12 11 12 -6z m159 -4 c-11 -12 -14 -21 -7
-26 6 -3 11 -11 11 -17 0 -7 -6 -6 -15 2 -18 15 -19 32 -3 48 20 20 32 13 14
-7z m-364 -35 c47 -3 56 -11 28 -26 -24 -13 -73 -5 -109 17 -13 8 -20 10 -17
4 6 -9 -8 -10 -42 -2 -2 1 0 6 4 12 4 7 23 9 53 5 25 -4 63 -8 83 -10z m98
-17 c0 -12 -29 -24 -37 -16 -3 4 -3 13 0 21 6 16 37 11 37 -5z m60 3 c0 -14
-11 -21 -26 -15 -21 8 -17 23 6 23 11 0 20 -4 20 -8z m-370 -40 c0 -15 -9 -18
-50 -19 -27 0 -50 3 -50 7 0 6 54 23 93 29 4 0 7 -7 7 -17z m110 3 c0 -11 -12
-15 -50 -15 -45 0 -60 7 -45 21 2 3 25 6 50 8 35 1 45 -2 45 -14z m165 0 c106
-3 125 -7 125 -29 0 -14 -46 -10 -67 6 -7 5 -12 5 -15 -1 -2 -6 -20 -6 -45 -2
-26 5 -43 5 -43 -1 0 -10 -73 -4 -91 7 -5 4 -9 13 -9 21 0 11 6 13 21 9 11 -4
67 -8 124 -10z m261 -42 c24 -9 17 -34 -8 -28 -13 3 -43 9 -67 13 -25 4 -46
13 -49 21 -3 10 7 12 52 7 32 -4 64 -10 72 -13z m-406 -33 c0 -11 -2 -20 -4
-20 -2 0 -6 9 -9 20 -3 11 -1 20 4 20 5 0 9 -9 9 -20z m70 -6 c16 -18 2 -69
-19 -69 -22 0 -40 37 -30 63 10 26 31 29 49 6z m120 -9 c0 -8 -5 -17 -12 -21
-7 -4 -8 -3 -4 5 4 6 2 19 -5 27 -10 12 -9 13 5 8 9 -3 16 -12 16 -19z m-586
-234 c7 -10 -3 -41 -13 -41 -3 0 -7 11 -7 25 -2 25 10 33 20 16z"/>
<path d="M670 1186 c0 -9 8 -16 18 -17 9 0 27 -2 40 -5 12 -2 22 0 22 5 0 13
-8 17 -47 26 -26 5 -33 3 -33 -9z"/>
<path d="M1635 610 c-11 -17 5 -32 21 -19 7 6 11 15 8 20 -7 12 -21 11 -29 -1z"/>
<path d="M1954 579 c-10 -17 13 -36 27 -22 12 12 4 33 -11 33 -5 0 -12 -5 -16
-11z"/>
<path d="M1794 509 c-10 -17 13 -36 27 -22 12 12 4 33 -11 33 -5 0 -12 -5 -16
-11z"/>
<path d="M1615 290 c-7 -23 2 -43 16 -35 12 8 12 42 0 50 -5 3 -12 -4 -16 -15z"/>
<path d="M2520 2940 c0 -5 5 -10 10 -10 6 0 10 5 10 10 0 6 -4 10 -10 10 -5 0
-10 -4 -10 -10z"/>
<path d="M2830 2930 c-13 -9 -13 -10 0 -9 8 0 24 4 35 9 l20 9 -20 0 c-11 0
-27 -4 -35 -9z"/>
<path d="M3413 2926 c20 -8 43 -19 50 -25 8 -6 49 -22 93 -37 95 -31 180 -84
213 -133 75 -113 131 -242 131 -301 0 -29 48 -120 62 -120 5 0 8 38 8 84 l0
84 48 10 c69 16 108 21 192 27 80 6 86 8 75 25 -7 11 -71 6 -135 -10 -41 -11
-126 -1 -95 11 18 7 17 8 -5 8 -32 0 -62 -12 -60 -24 1 -5 -3 -11 -9 -13 -6
-2 -11 2 -11 10 -4 381 -5 401 -22 404 -10 1 -142 5 -295 7 -238 5 -273 4
-240 -7z"/>
<path d="M1916 2893 c-21 -19 -36 -36 -34 -38 9 -9 48 9 48 22 0 8 14 20 31
27 26 11 28 14 12 18 -13 3 -32 -7 -57 -29z"/>
<path d="M2475 2910 c-3 -5 -1 -10 4 -10 6 0 11 5 11 10 0 6 -2 10 -4 10 -3 0
-8 -4 -11 -10z"/>
<path d="M2570 2910 c0 -6 -7 -10 -16 -8 -10 2 -19 -3 -21 -10 -3 -8 1 -10 14
-5 16 6 16 5 4 -10 -7 -9 -11 -24 -7 -32 3 -8 0 -15 -6 -15 -6 0 -17 -8 -24
-17 -12 -17 -13 -16 -14 5 0 24 -10 28 -27 11 -9 -9 -6 -21 12 -48 12 -20 31
-66 40 -103 17 -64 17 -69 1 -94 -10 -14 -15 -28 -12 -31 3 -3 14 10 25 28 12
19 21 29 21 23 0 -7 9 -14 21 -17 11 -3 19 -11 18 -19 -5 -37 2 -58 19 -58 20
0 42 21 60 55 13 25 -6 71 -45 110 -15 14 -23 31 -19 40 3 8 1 15 -4 15 -6 0
-10 -8 -11 -17 0 -11 -3 -13 -6 -5 -2 6 -12 12 -20 12 -13 0 -13 2 -2 16 11
14 11 18 -4 29 -20 14 -22 46 -5 63 7 7 8 12 3 12 -6 0 -4 4 3 9 17 10 27 71
13 71 -6 0 -11 -5 -11 -10z"/>
<path d="M4660 2900 c-12 -8 -12 -10 3 -16 22 -8 50 3 42 16 -8 12 -25 13 -45
0z"/>
<path d="M1970 2880 c-28 -22 -21 -27 10 -8 26 17 34 5 22 -31 -13 -37 -1 -41
18 -6 12 23 12 28 -6 45 -19 19 -19 19 -44 0z"/>
<path d="M1102 2870 c0 -14 2 -19 5 -12 2 6 2 18 0 25 -3 6 -5 1 -5 -13z"/>
<path d="M1838 2819 c-2 -14 -2 -34 2 -44 6 -17 7 -17 13 4 3 13 2 32 -2 44
-8 20 -8 20 -13 -4z"/>
<path d="M2440 2785 c0 -8 5 -15 10 -15 6 0 10 7 10 15 0 8 -4 15 -10 15 -5 0
-10 -7 -10 -15z"/>
<path d="M1101 2684 c-1 -17 6 -37 14 -44 20 -16 20 3 0 45 l-13 30 -1 -31z"/>
<path d="M4930 2701 c0 -4 11 -6 25 -3 14 2 25 6 25 8 0 2 -11 4 -25 4 -14 0
-25 -4 -25 -9z"/>
<path d="M1600 2670 c0 -5 4 -10 9 -10 6 0 13 5 16 10 3 6 -1 10 -9 10 -9 0
-16 -4 -16 -10z"/>
<path d="M2407 2638 c-9 -31 -2 -33 11 -3 6 14 8 25 3 25 -5 0 -11 -10 -14
-22z"/>
<path d="M4625 2630 c-3 -5 1 -10 9 -10 8 0 18 5 21 10 3 6 -1 10 -9 10 -8 0
-18 -4 -21 -10z"/>
<path d="M1853 2573 c4 -26 1 -44 -8 -57 -8 -11 -15 -27 -14 -35 0 -9 3 -11 5
-5 5 12 54 7 54 -6 0 -9 90 -33 98 -25 3 3 2 5 -2 5 -4 0 -1 7 8 15 8 8 24 15
35 15 23 0 27 10 9 28 -7 7 -8 15 -1 24 25 33 22 44 -13 40 -28 -4 -33 -1 -28
12 4 12 2 15 -9 10 -9 -3 -18 -12 -21 -20 -7 -17 -36 -19 -36 -1 0 13 -44 37
-68 37 -11 0 -13 -9 -9 -37z m151 -30 c8 -21 -8 -38 -29 -29 -13 4 -14 10 -5
26 13 24 26 26 34 3z m-41 -47 c14 -11 15 -15 4 -19 -15 -5 -37 10 -37 25 0
12 12 9 33 -6z"/>
<path d="M4601 2590 c0 -8 4 -24 9 -35 l9 -20 0 20 c0 11 -4 27 -9 35 -9 13
-10 13 -9 0z"/>
<path d="M1583 2560 c-26 -77 -53 -192 -53 -229 0 -22 -6 -44 -15 -51 -8 -7
-15 -19 -15 -28 0 -10 9 -5 25 14 24 28 25 28 25 6 0 -12 -6 -25 -14 -28 -8
-3 -12 -13 -9 -24 6 -23 -13 -60 -32 -60 -12 0 -15 -14 -14 -67 1 -89 10 -117
36 -121 22 -3 53 21 53 41 0 7 -16 21 -35 31 -21 12 -35 27 -35 38 0 11 5 16
10 13 6 -3 10 3 10 15 0 12 12 42 26 68 15 26 29 63 31 82 7 60 10 63 51 57
20 -3 45 -8 55 -12 9 -4 17 -3 17 3 0 6 -14 15 -31 21 -31 11 -89 65 -89 83 0
6 14 8 35 4 27 -5 35 -4 35 8 0 20 20 31 30 16 6 -9 9 -9 15 0 10 17 1 22 -41
22 -21 0 -47 3 -58 8 -20 7 -19 8 7 32 21 20 24 27 13 31 -8 3 -16 18 -18 34
l-3 28 -12 -35z"/>
<path d="M4448 2583 c7 -3 16 -2 19 1 4 3 -2 6 -13 5 -11 0 -14 -3 -6 -6z"/>
<path d="M4426 2547 c-8 -30 -2 -31 30 -4 l28 25 -26 0 c-18 0 -28 -7 -32 -21z"/>
<path d="M4854 2555 c-10 -8 -14 -15 -8 -15 6 0 17 7 24 15 16 19 9 19 -16 0z"/>
<path d="M965 2548 c-21 -5 -46 -6 -54 -3 -20 8 -71 -44 -71 -72 0 -22 4 -23
69 -23 84 0 131 15 131 41 0 10 -4 19 -10 19 -5 0 -10 9 -10 19 0 27 -8 29
-55 19z"/>
<path d="M1777 2543 c-4 -3 -28 -12 -54 -19 l-48 -13 36 0 c23 -1 46 7 60 19
13 10 21 19 18 20 -3 0 -9 -3 -12 -7z"/>
<path d="M4365 2540 c-9 -14 -7 -16 25 -24 17 -5 21 -4 11 2 -7 5 -17 15 -21
22 -6 9 -9 9 -15 0z"/>
<path d="M2468 2499 c-73 -92 -105 -123 -156 -155 -29 -19 -58 -31 -64 -28 -7
5 -9 0 -6 -14 4 -12 2 -20 -3 -17 -4 3 -18 -16 -30 -41 -20 -46 -22 -94 -6
-169 2 -12 -2 -23 -12 -27 -14 -6 -14 -7 2 -7 21 -1 23 -21 2 -21 -8 0 -15 -4
-15 -10 0 -5 5 -10 11 -10 16 0 2 -17 -20 -23 -10 -2 -25 -1 -32 4 -12 8 -11
11 1 20 11 8 5 9 -25 5 -22 -3 -45 -6 -51 -6 -8 0 -11 -39 -10 -131 l1 -130
98 -3 98 -3 -2 68 c-2 57 -4 66 -18 61 -14 -5 -14 -3 -2 11 9 12 18 14 29 8
14 -8 16 -23 13 -83 -1 -40 1 -69 5 -65 4 4 7 28 5 52 -1 27 2 45 8 45 6 0 11
-4 11 -10 0 -5 7 -10 15 -10 21 0 19 9 -7 30 -25 20 -23 22 32 34 42 9 200
154 200 182 0 10 6 14 15 10 8 -3 15 -1 15 4 0 6 -5 10 -11 10 -8 0 -10 18 -6
59 6 58 6 59 -24 71 -24 10 -33 10 -38 1 -11 -16 -77 -51 -85 -44 -3 4 -6 -1
-6 -11 0 -13 -7 -17 -32 -14 -32 3 -32 4 -30 49 3 43 1 47 -23 53 -24 6 -25 8
-10 23 10 9 15 26 12 39 -2 13 -1 23 2 22 24 -2 41 4 35 13 -4 8 0 9 15 4 15
-5 21 -2 21 9 0 22 38 58 52 50 7 -4 8 -3 4 4 -4 7 -3 12 3 12 6 0 8 6 5 13
-2 7 5 23 16 35 11 12 18 22 15 22 -3 0 2 11 11 25 26 39 9 29 -28 -16z m-158
-430 c-9 -16 -14 -18 -20 -9 -4 7 -1 21 9 31 19 24 27 9 11 -22z m-10 -39 c0
-5 -5 -10 -11 -10 -5 0 -7 5 -4 10 3 6 8 10 11 10 2 0 4 -4 4 -10z m-110 -65
c0 -3 -7 -16 -15 -29 -15 -23 -11 -56 6 -56 5 0 9 -9 9 -20 0 -11 -4 -20 -10
-20 -5 0 -10 7 -10 15 0 8 -3 14 -7 14 -27 -4 -43 3 -43 21 0 37 -20 20 -21
-17 0 -21 -3 -32 -6 -25 -2 6 -11 12 -19 12 -8 0 -14 9 -14 20 0 11 5 20 11
20 6 0 8 8 5 18 -3 9 -2 23 3 30 12 19 47 10 43 -11 -2 -9 1 -17 7 -17 5 0 12
-8 14 -17 3 -10 5 -4 6 13 0 16 6 35 13 42 12 12 28 16 28 7z m4 -47 c-5 -8
-2 -9 10 -5 11 5 16 3 14 -5 -6 -16 -20 -19 -38 -8 -13 9 -13 11 0 20 20 13
23 12 14 -2z m36 -168 c0 -5 -7 -10 -16 -10 -8 0 -12 5 -9 10 3 6 10 10 16 10
5 0 9 -4 9 -10z"/>
<path d="M2506 2488 c3 -5 10 -6 15 -3 13 9 11 12 -6 12 -8 0 -12 -4 -9 -9z"/>
<path d="M1760 2465 c-13 -14 -19 -25 -13 -25 5 0 20 11 33 25 13 14 19 25 13
25 -5 0 -20 -11 -33 -25z"/>
<path d="M671 2454 c0 -11 3 -14 6 -6 3 7 2 16 -1 19 -3 4 -6 -2 -5 -13z"/>
<path d="M2581 2454 c0 -11 3 -14 6 -6 3 7 2 16 -1 19 -3 4 -6 -2 -5 -13z"/>
<path d="M2030 2438 c0 -7 -3 -24 -7 -38 -6 -22 -5 -24 10 -11 18 15 23 61 7
61 -5 0 -10 -6 -10 -12z"/>
<path d="M1037 2423 c-4 -3 -7 -11 -7 -17 0 -6 5 -5 12 2 6 6 9 14 7 17 -3 3
-9 2 -12 -2z"/>
<path d="M3270 2423 c-8 -3 -18 -10 -21 -16 -5 -6 -18 -6 -39 2 -18 6 -46 11
-63 11 -25 0 -28 -2 -17 -15 10 -12 10 -15 -4 -15 -9 0 -16 5 -16 10 0 6 -4
10 -10 10 -5 0 -10 -6 -10 -13 0 -7 -24 -18 -57 -26 -31 -7 -65 -18 -75 -24
-14 -9 -20 -9 -26 0 -6 9 -18 3 -42 -22 -19 -20 -40 -33 -48 -30 -10 4 -12 0
-8 -11 5 -14 1 -15 -27 -10 -40 7 -79 -15 -60 -35 9 -9 8 -17 -4 -36 -19 -29
-10 -41 38 -53 161 -41 211 -50 328 -59 74 -6 167 -11 207 -11 63 0 73 2 67
16 -5 14 -1 15 25 9 36 -7 45 9 10 18 -21 6 -21 7 -3 27 10 11 29 20 42 20 27
0 29 -6 7 -28 -11 -10 -13 -17 -5 -20 6 -2 11 -10 11 -18 0 -8 10 -14 23 -14
34 1 107 37 107 54 0 9 9 21 20 28 11 7 20 16 20 19 0 13 -71 20 -85 9 -10 -8
-24 -8 -54 0 -30 8 -39 15 -38 30 1 13 6 19 15 15 8 -3 12 0 9 7 -2 7 -9 12
-14 11 -6 -1 -8 9 -5 22 4 21 0 25 -21 25 -14 0 -27 -6 -30 -12 -3 -9 -7 -6
-13 6 -5 13 -3 21 4 24 7 2 12 9 12 17 0 7 14 18 31 25 42 18 23 32 -36 28
-33 -2 -50 -8 -52 -18 -4 -13 -3 -13 6 0 12 16 12 15 16 -16 2 -20 -1 -21 -29
-13 -20 6 -43 5 -65 -2 -20 -7 -36 -8 -40 -2 -3 5 -22 14 -41 19 l-35 11 53 7
c28 4 50 11 47 16 -3 4 3 7 12 6 9 0 18 5 20 12 5 12 -11 15 -37 5z m-165
-103 c4 -6 -8 -10 -29 -10 -19 0 -38 5 -41 10 -4 6 8 10 29 10 19 0 38 -4 41
-10z m84 -13 c13 -16 5 -27 -21 -27 -11 0 -18 7 -18 20 0 23 22 27 39 7z m198
-10 c3 -4 1 -7 -6 -7 -7 0 -9 -5 -6 -10 7 -11 -18 -40 -34 -40 -6 0 -7 8 -4
18 6 14 4 15 -9 4 -12 -10 -18 -9 -28 3 -20 24 5 46 46 42 19 -2 37 -7 41 -10z
m-422 -36 c-3 -6 -11 -8 -17 -5 -6 4 -5 9 3 15 16 10 23 4 14 -10z m467 -46
c2 -24 -1 -31 -19 -33 -14 -2 -20 -8 -16 -18 6 -16 -13 -19 -22 -3 -4 5 -8 21
-10 35 -2 24 4 28 37 25 12 -2 15 4 11 21 -4 16 -2 20 5 13 6 -5 12 -23 14
-40z m-418 -3 c18 -34 10 -79 -15 -85 -24 -6 -25 9 -1 22 9 6 12 11 6 11 -10
0 -17 80 -8 80 2 0 10 -12 18 -28z m69 14 c17 -13 14 -46 -5 -46 -5 0 -6 5 -3
10 3 6 1 10 -5 10 -12 0 -40 24 -40 34 0 11 35 5 53 -8z m85 -17 c-17 -10 -28
-2 -21 17 4 11 8 12 20 3 11 -10 11 -14 1 -20z m82 17 c0 -3 -4 -8 -10 -11 -5
-3 -10 -1 -10 4 0 6 5 11 10 11 6 0 10 -2 10 -4z m-275 -36 c-3 -5 -10 -10
-16 -10 -5 0 -9 5 -9 10 0 6 7 10 16 10 8 0 12 -4 9 -10z m345 -37 c0 -23 -23
-9 -27 16 -3 20 -1 22 12 11 8 -7 15 -19 15 -27z m-467 8 c3 -14 0 -17 -14
-14 -15 4 -17 8 -8 19 15 18 16 18 22 -5z m87 -12 c0 -5 -7 -9 -15 -9 -15 0
-20 12 -9 23 8 8 24 -1 24 -14z m180 10 c0 -8 14 -10 39 -6 31 4 38 2 34 -9
-3 -8 -16 -14 -29 -14 -30 0 -75 21 -68 31 8 13 24 11 24 -2z"/>
<path d="M795 2334 c0 -55 3 -63 30 -86 17 -14 49 -28 73 -32 35 -5 48 -2 72
16 17 12 30 31 30 43 0 11 5 26 11 32 7 7 -11 12 -63 17 -40 4 -77 11 -83 15
-5 5 -22 11 -37 15 -14 3 -28 14 -30 24 -2 9 -3 -10 -3 -44z"/>
<path d="M1615 2380 c-3 -5 1 -10 10 -10 9 0 13 5 10 10 -3 6 -8 10 -10 10 -2
0 -7 -4 -10 -10z"/>
<path d="M1756 2293 c-7 -27 -24 -121 -31 -178 -5 -43 -14 -79 -51 -207 -4
-14 -16 -18 -58 -18 -29 0 -60 -6 -71 -13 -16 -13 -17 -19 -5 -80 l12 -67 72
0 72 0 -2 68 c-1 37 2 69 7 72 4 3 11 34 13 68 3 35 8 67 11 71 3 7 26 150 36
230 0 3 4 -3 9 -14 7 -16 9 -13 9 17 1 20 4 43 7 52 4 10 1 16 -9 16 -9 0 -18
-8 -21 -17z m-116 -483 c-8 -5 -18 -6 -24 -3 -5 4 -1 10 10 13 24 9 34 2 14
-10z"/>
<path d="M713 2270 c-19 -17 -20 -23 -10 -57 11 -39 25 -55 41 -50 8 3 35 87
36 115 0 19 -44 14 -67 -8z"/>
<path d="M1848 2233 c7 -3 16 -2 19 1 4 3 -2 6 -13 5 -11 0 -14 -3 -6 -6z"/>
<path d="M1496 2217 c-10 -8 -17 -19 -15 -25 5 -14 42 13 37 28 -2 7 -9 6 -22
-3z"/>
<path d="M3712 2190 c-7 -19 -7 -29 4 -39 20 -22 28 -6 17 31 l-10 33 -11 -25z"/>
<path d="M2586 2175 c-7 -20 9 -28 23 -11 9 10 8 15 -3 19 -8 3 -17 -1 -20 -8z"/>
<path d="M932 2149 c-18 -16 -38 -27 -44 -23 -16 10 -108 15 -108 6 0 -5 18
-19 40 -32 22 -14 40 -32 40 -41 0 -22 26 -43 45 -35 8 3 15 12 15 20 0 8 7
22 16 31 14 13 38 94 31 102 -1 1 -17 -12 -35 -28z m-47 -69 c3 -5 1 -10 -4
-10 -6 0 -11 5 -11 10 0 6 2 10 4 10 3 0 8 -4 11 -10z"/>
<path d="M3625 2150 c3 -5 11 -10 16 -10 6 0 7 5 4 10 -3 6 -11 10 -16 10 -6
0 -7 -4 -4 -10z"/>
<path d="M4245 2140 c-3 -5 -1 -10 4 -10 6 0 11 5 11 10 0 6 -2 10 -4 10 -3 0
-8 -4 -11 -10z"/>
<path d="M2602 2124 c-10 -11 -10 -14 2 -14 11 0 12 -7 7 -27 -7 -25 10 -128
23 -141 6 -5 10 43 6 63 -1 6 -4 35 -7 65 -5 62 -12 75 -31 54z"/>
<path d="M436 2082 c-2 -4 9 -22 25 -40 23 -26 31 -29 35 -17 8 19 21 19 58 0
15 -8 29 -15 30 -15 1 0 2 16 3 36 1 40 10 38 -84 17 -17 -4 -23 -1 -23 11 0
16 -35 23 -44 8z"/>
<path d="M1751 2021 c-8 -5 -9 -11 -3 -15 5 -3 12 1 16 9 6 17 6 18 -13 6z"/>
<path d="M720 2007 c0 -19 5 -23 48 -32 28 -6 32 -4 32 14 0 13 -6 21 -17 21
-10 0 -28 3 -40 6 -17 5 -23 2 -23 -9z"/>
<path d="M480 1924 c0 -9 7 -14 17 -12 25 5 28 28 4 28 -12 0 -21 -6 -21 -16z"/>
<path d="M1095 1905 c4 -11 8 -31 9 -45 0 -14 4 -27 7 -30 4 -3 9 -25 12 -50
3 -25 6 -46 6 -47 1 -2 35 -3 76 -3 55 0 75 4 75 13 0 27 -41 91 -69 108 -29
18 -30 18 -33 -3 -5 -32 -24 -33 -36 -1 -5 15 -19 39 -32 53 -18 21 -20 22
-15 5z"/>
<path d="M1718 1838 c-2 -24 2 -59 9 -78 12 -36 19 -24 14 28 -1 15 2 21 8 17
6 -3 11 -13 11 -21 0 -8 4 -14 10 -14 5 0 7 15 5 33 l-5 32 10 -30 c12 -36 5
-59 -15 -51 -9 3 -15 0 -15 -9 0 -12 16 -15 75 -15 43 0 75 4 75 10 0 16 -71
90 -101 106 -37 18 -39 18 -39 -8 0 -27 -8 -20 -13 12 -6 41 -25 33 -29 -12z
m122 -77 c0 -14 -18 -23 -30 -16 -6 4 -8 11 -5 16 8 12 35 12 35 0z"/>
<path d="M2563 1820 c0 -30 2 -43 4 -27 2 15 2 39 0 55 -2 15 -4 2 -4 -28z"/>
<path d="M1015 1828 c-11 -7 -43 -21 -70 -33 -28 -11 -50 -24 -50 -30 0 -5 4
-9 9 -7 5 2 13 -3 17 -10 7 -10 15 -5 33 17 26 32 24 33 41 -21 3 -10 14 -14
32 -12 26 3 28 6 29 56 2 55 -4 61 -41 40z"/>
<path d="M2350 1822 c0 -4 9 -13 20 -20 18 -11 20 -10 20 8 0 13 -7 20 -20 20
-11 0 -20 -3 -20 -8z"/>
<path d="M2601 1794 c0 -11 3 -14 6 -6 3 7 2 16 -1 19 -3 4 -6 -2 -5 -13z"/>
<path d="M1405 1780 c-3 -5 -1 -10 4 -10 6 0 11 5 11 10 0 6 -2 10 -4 10 -3 0
-8 -4 -11 -10z"/>
<path d="M2505 1780 c-3 -5 1 -13 10 -16 22 -9 29 1 11 15 -10 8 -16 9 -21 1z"/>
<path d="M2320 1750 c0 -5 5 -10 11 -10 5 0 7 5 4 10 -3 6 -8 10 -11 10 -2 0
-4 -4 -4 -10z"/>
<path d="M2370 1749 c0 -5 5 -7 10 -4 6 3 10 8 10 11 0 2 -4 4 -10 4 -5 0 -10
-5 -10 -11z"/>
<path d="M2480 1750 c0 -6 7 -10 15 -10 8 0 15 2 15 4 0 2 -7 6 -15 10 -8 3
-15 1 -15 -4z"/>
<path d="M2550 1750 c0 -5 5 -10 10 -10 6 0 10 5 10 10 0 6 -4 10 -10 10 -5 0
-10 -4 -10 -10z"/>
<path d="M1964 1704 c-10 -14 -25 -32 -32 -40 -7 -8 -11 -14 -7 -14 3 0 -5
-12 -19 -26 -21 -24 -26 -55 -7 -54 3 0 26 28 51 61 79 107 75 99 53 99 -11 0
-29 -12 -39 -26z"/>
<path d="M2285 1670 c3 -5 10 -10 16 -10 5 0 9 5 9 10 0 6 -7 10 -16 10 -8 0
-12 -4 -9 -10z"/>
<path d="M2120 1569 c0 -5 5 -7 10 -4 6 3 10 8 10 11 0 2 -4 4 -10 4 -5 0 -10
-5 -10 -11z"/>
<path d="M1849 1543 c-27 -32 -73 -108 -74 -120 0 -7 -7 -18 -16 -25 -17 -14
-92 -112 -123 -161 -31 -50 -12 -37 24 16 19 28 50 67 69 87 l33 35 -5 -30
c-3 -16 -11 -50 -18 -74 -11 -40 -10 -45 6 -57 18 -13 18 -15 1 -27 -21 -16
-34 -101 -17 -111 18 -12 13 -103 -9 -145 l-19 -38 46 -7 c72 -10 80 -8 57 9
-18 14 -17 15 16 12 19 -2 42 -6 50 -9 8 -3 33 -11 55 -18 22 -7 45 -15 52
-17 6 -3 27 11 45 30 18 19 40 37 49 40 9 3 28 30 42 59 27 55 60 98 78 98 21
0 37 27 32 53 -3 15 -1 33 4 40 12 15 27 54 17 45 -15 -15 -42 40 -47 97 -7
68 -21 142 -32 168 -9 22 -40 23 -31 1 4 -12 2 -15 -9 -10 -8 3 -15 1 -15 -5
0 -7 -10 -9 -25 -5 -16 4 -25 2 -25 -5 0 -8 -7 -6 -18 4 -10 10 -24 17 -30 17
-15 0 -54 22 -64 35 -4 6 -8 0 -8 -13 0 -19 -4 -22 -27 -16 -55 11 -56 13 -43
30 9 10 10 18 3 25 -6 6 -15 3 -24 -8z m179 -94 c2 -13 -1 -19 -5 -13 -4 6
-17 14 -28 18 -16 6 -17 9 -5 16 22 14 35 7 38 -21z m-193 2 c-3 -6 -11 -11
-17 -11 -6 0 -6 6 2 15 14 17 26 13 15 -4z"/>
<path d="M2710 1445 c-9 -11 -10 -19 -3 -26 7 -7 14 -5 23 6 9 11 10 19 3 26
-7 7 -14 5 -23 -6z"/>
<path d="M1515 1070 c-3 -5 -1 -10 4 -10 6 0 11 5 11 10 0 6 -2 10 -4 10 -3 0
-8 -4 -11 -10z"/>
<path d="M791 714 c0 -11 3 -14 6 -6 3 7 2 16 -1 19 -3 4 -6 -2 -5 -13z"/>
<path d="M2725 263 c-16 -3 -34 -9 -40 -15 -13 -13 66 -1 80 13 5 6 5 8 0 8
-6 -1 -23 -4 -40 -6z"/>
<path d="M2624 246 c-8 -9 -8 -17 0 -28 10 -14 13 -13 23 8 12 26 -4 40 -23
20z"/>
<path d="M2630 142 c0 -23 4 -42 10 -42 10 0 8 66 -3 76 -4 4 -7 -11 -7 -34z"/>
<path d="M2290 90 c-8 -5 -10 -10 -5 -10 6 0 17 5 25 10 8 5 11 10 5 10 -5 0
-17 -5 -25 -10z"/>
<path d="M2621 61 c-8 -5 -10 -14 -6 -21 6 -9 10 -8 17 4 12 21 7 28 -11 17z"/>
<path d="M2570 26 c0 -9 5 -16 10 -16 6 0 10 4 10 9 0 6 -4 13 -10 16 -5 3
-10 -1 -10 -9z"/>
</g>
</svg>
